<svg width="343" height="295" viewBox="0 0 343 295" fill="none" xmlns="http://www.w3.org/2000/svg">
<path d="M343 101.705C342.995 65.571 313.986 25.976 277.881 23.5845C277.247 23.5424 276.606 23.5055 275.96 23.4744C224.2 20.9722 220.257 86.4446 173.427 93.8289C126.597 101.213 90.8344 63.9354 34.7993 88.2568C-15.5272 110.101 -29.1586 232.844 118.71 237.766C237.017 241.704 343.016 209.512 343 101.705Z" fill="#93C0D6" fill-opacity="0.2"/>
<path d="M182.195 70.6215C186.211 71.7389 188.56 75.8997 187.442 79.9154C186.325 83.9311 182.164 86.28 178.148 85.1626C174.133 84.0451 171.784 79.8843 172.901 75.8686C174.018 71.8529 178.179 69.504 182.195 70.6215Z" fill="#EFE1FF"/>
<path d="M338.969 182.121C340.621 178.294 338.858 173.853 335.031 172.201C331.204 170.549 326.763 172.313 325.112 176.139C323.46 179.966 325.223 184.407 329.05 186.059C332.876 187.71 337.317 185.947 338.969 182.121Z" fill="#EFE1FF"/>
<path d="M308.42 289.486C308.42 292.02 251.386 294.075 181.031 294.075C110.677 294.075 53.6427 292.02 53.6427 289.486C53.6427 286.952 110.677 284.897 181.031 284.897C251.386 284.897 308.42 286.952 308.42 289.486Z" fill="#A7BFD7"/>
<path d="M148.775 266.261V290.521H158.842L164.596 269.898L166.726 262.258L148.775 266.261Z" fill="#683089"/>
<g opacity="0.5">
<path d="M148.775 266.261V272.453C153.339 271.945 159.85 270.792 164.595 269.899L166.725 262.259L148.775 266.261Z" fill="#683089"/>
</g>
<path d="M92.0692 266.261V290.521H82.002L76.2484 269.898L74.1178 262.258L92.0692 266.261Z" fill="#683089"/>
<g opacity="0.5">
<path d="M92.0692 266.261V272.453C87.5045 271.945 80.9939 270.792 76.2484 269.899L74.1178 262.259L92.0692 266.261Z" fill="#683089"/>
</g>
<path d="M45.4382 123.159C46.4139 133.397 55.0091 170.673 59.3373 189.046C59.7683 190.879 60.1565 192.522 60.493 193.933C61.309 197.376 61.8029 199.426 61.8029 199.426L154.436 197.482C154.436 197.482 154.695 196.296 155.142 194.197C158.455 178.69 172.121 113.299 168.511 106.928C168.257 106.48 167.882 106.037 167.396 105.603C167.051 105.294 166.654 104.991 166.202 104.69C165.751 104.391 165.248 104.095 164.694 103.803C157.991 100.263 144.012 97.3163 128.137 95.5763C109.416 93.5191 88.0614 93.1462 72.9056 95.4608C72.473 95.527 72.0445 95.5956 71.6232 95.6667C70.5191 95.8482 69.4603 96.0387 68.4434 96.23C48.5752 99.9925 44.7288 105.401 44.6053 113.06V113.066C44.5577 116.074 45.0822 119.423 45.4382 123.159Z" fill="#793990"/>
<path d="M153.853 177.649C154.043 177.649 154.213 177.514 154.248 177.319C154.277 177.159 157.214 161.021 159.584 144.616C160.976 134.975 161.902 127.129 162.338 121.293C163.086 111.278 162.237 109.281 161.534 108.65C157.465 105 136.415 102.201 124.228 100.858C118.391 100.215 112.445 100.012 106.555 100.255C92.4663 100.837 68.2166 102.378 64.1095 106.168C63.4146 106.809 62.5946 108.818 63.4816 118.821C63.9981 124.65 65.0344 132.483 66.5613 142.102C69.1592 158.473 72.3213 174.568 72.3528 174.729C72.3955 174.946 72.6078 175.089 72.8257 175.046C73.0436 175.003 73.1857 174.792 73.1429 174.573C73.1114 174.412 69.9518 158.331 67.3563 141.974C62.815 113.357 63.7148 107.626 64.6559 106.759C67.5177 104.117 82.8018 102.04 106.589 101.058C112.437 100.817 118.343 101.018 124.14 101.657C136.231 102.989 157.096 105.748 160.996 109.248C161.948 110.103 162.929 115.819 158.788 144.498C156.421 160.888 153.486 177.013 153.457 177.174C153.418 177.393 153.562 177.603 153.781 177.642C153.804 177.648 153.829 177.649 153.853 177.649Z" fill="#683089"/>
<path d="M44.1146 113.061V113.067C44.1541 115.871 44.6303 118.967 44.9612 122.386C45.9523 132.624 54.6895 169.901 59.088 188.274H74.4737C74.4737 188.274 57.5077 127.395 56.5094 112.421C55.8573 102.646 63.1781 98.1639 68.3433 96.231C48.1499 99.9935 44.2389 105.401 44.1146 113.061Z" fill="#683089"/>
<path d="M154.378 195.724C154.378 195.724 168.62 194.342 169.787 199.497C170.697 203.518 169.477 239.525 168.896 255.172C168.744 259.275 171.905 262.741 176.004 262.972C176.91 263.023 177.865 263.069 178.847 263.104C183.565 263.273 188.917 263.206 192.586 262.377C200.575 260.573 200.833 249.235 203.668 230.421C206.503 211.609 209.08 178.108 191.557 171.665C190.954 171.443 190.349 171.242 189.748 171.06C172.861 165.956 156.766 176.046 156.766 176.046C152.875 186.814 154.378 195.724 154.378 195.724Z" fill="#683089"/>
<path d="M178.847 263.105C183.565 263.273 188.917 263.206 192.586 262.378C200.575 260.574 200.833 249.235 203.668 230.422C206.503 211.61 209.08 178.109 191.557 171.666C190.954 171.444 190.349 171.243 189.748 171.061C186.761 171.775 184.017 173.755 182.536 178.109C178.521 189.916 184.896 230.943 178.847 263.105Z" fill="#793990"/>
<path d="M188.179 260.283C191.819 260.283 194.65 258.78 196.38 255.923C199.086 251.451 202.991 213.092 203.156 211.461C203.176 211.261 203.031 211.082 202.831 211.062C202.631 211.042 202.452 211.188 202.432 211.387C202.392 211.785 198.38 251.213 195.758 255.546C191.781 262.116 183.006 258.612 182.918 258.576C182.732 258.5 182.52 258.589 182.444 258.775C182.368 258.96 182.457 259.173 182.642 259.249C182.737 259.288 185.013 260.209 187.847 260.279C187.958 260.281 188.069 260.283 188.179 260.283Z" fill="#683089"/>
<path d="M186.874 184.75C186.874 184.75 187.16 178.312 192.019 178.822C196.879 179.332 197.112 189.954 192.768 191.326C186.412 193.336 186.874 184.75 186.874 184.75Z" fill="#683089"/>
<path d="M198.062 182.827C198.088 182.827 198.114 182.825 198.141 182.818C198.337 182.775 198.461 182.58 198.418 182.384C198.364 182.145 197.063 176.501 192.361 175.377C190.455 174.922 188.763 175.264 187.331 176.394C185.26 178.029 184.296 180.982 184.296 182.463C184.296 182.664 184.459 182.827 184.66 182.827C184.861 182.827 185.024 182.664 185.024 182.463C185.024 181.305 185.833 178.504 187.782 176.966C189.031 175.981 190.514 175.685 192.192 176.085C196.457 177.104 197.695 182.488 197.708 182.542C197.745 182.712 197.895 182.827 198.062 182.827Z" fill="#683089"/>
<path d="M55.3125 193.32C56.2205 197.146 56.7701 199.426 56.7701 199.426L159.752 197.265C159.752 197.265 160.04 195.948 160.537 193.613C142.285 190.511 79.6566 191.559 55.3125 193.32Z" fill="#683089"/>
<path d="M56.1325 212.772C56.1583 214.713 56.2003 216.769 56.2648 218.901C56.8387 238.095 59.1872 263.398 67.512 265.616C81.065 269.229 165.16 271.067 169.554 263.033C170.866 260.635 171.682 256.597 172.214 251.657C172.318 250.69 172.41 249.686 172.494 248.655C173.217 239.714 173.224 228.59 173.522 218.901C173.604 216.298 173.705 213.796 173.848 211.471C174.89 194.391 160.99 194.15 160.99 194.15C141.338 193.69 112.465 194.61 90.0096 195.558C78.3008 196.053 68.336 196.553 62.3315 196.869C58.4689 197.074 56.2447 197.2 56.2447 197.2C56.2447 197.2 56.013 203.736 56.1325 212.772Z" fill="#793990"/>
<path d="M121.993 251.908C123.688 251.908 125.435 251.891 127.24 251.854C154.382 251.302 170.004 245.192 170.158 245.131C170.387 245.039 170.499 244.779 170.408 244.549C170.317 244.32 170.056 244.208 169.827 244.299C169.674 244.361 154.185 250.41 127.222 250.96C100.225 251.508 85.3964 247.667 85.2495 247.628C85.0107 247.565 84.7661 247.708 84.7024 247.946C84.6394 248.185 84.7815 248.43 85.0203 248.494C85.1584 248.53 98.1964 251.908 121.993 251.908Z" fill="#683089"/>
<path d="M56.1325 212.772C56.1583 214.713 56.2003 216.769 56.2648 218.901C56.8387 238.095 59.1872 263.399 67.512 265.616C81.065 269.23 165.16 271.067 169.554 263.033C170.866 260.635 171.682 256.598 172.214 251.658C172.318 250.69 172.41 249.687 172.494 248.655C168.507 251.315 156.534 254.803 148.307 255.648C114.008 259.165 87.3205 254.374 87.3205 254.374C91.8239 235.806 90.6286 206.158 90.0104 195.558C78.3016 196.053 68.3368 196.553 62.3323 196.87L56.1325 212.772Z" fill="#683089"/>
<path d="M35.7962 199.433C35.7962 199.433 35.2692 196.309 35.6469 191.526C36.2506 183.882 41.5053 177.365 48.8585 175.193C54.9356 173.397 62.957 172.288 71.1656 174.77C71.7668 174.951 72.3713 175.153 72.975 175.374C90.4979 181.817 87.9209 215.319 85.0865 234.131C82.2513 252.944 81.9939 264.282 74.0048 266.086C70.3367 266.914 64.9851 266.981 60.2671 266.813C59.2849 266.778 58.3301 266.732 57.4238 266.682C57.4238 266.682 47.4921 267.546 42.3972 263.18C37.3014 258.812 35.7962 199.433 35.7962 199.433Z" fill="#683089"/>
<path d="M60.2654 266.813C64.9835 266.982 70.3351 266.914 74.0032 266.086C81.9923 264.283 82.2505 252.944 85.0849 234.131C87.9201 215.319 90.497 181.817 72.9734 175.375C72.3705 175.153 71.7652 174.952 71.164 174.77C68.1778 175.483 65.4338 177.464 63.9529 181.817C59.9394 193.625 66.3135 234.651 60.2654 266.813Z" fill="#793990"/>
<path d="M70.1567 263.691C73.7966 263.691 76.6269 262.188 78.3565 259.33C81.0625 254.859 84.9671 216.499 85.1325 214.868C85.1527 214.668 85.0066 214.49 84.8073 214.47C84.6047 214.45 84.4288 214.596 84.4086 214.795C84.3682 215.193 80.3563 254.622 77.7342 258.953C76.0749 261.695 73.4213 263.041 69.8614 262.959C67.1577 262.897 64.9165 261.993 64.8939 261.984C64.7075 261.908 64.4952 261.997 64.4194 262.182C64.3435 262.369 64.4323 262.581 64.6179 262.657C64.7131 262.696 66.989 263.616 69.8226 263.687C69.9348 263.689 70.047 263.691 70.1567 263.691Z" fill="#683089"/>
<path d="M66.6372 185.967C66.8381 185.967 67.0012 185.804 67.0012 185.603C67.0012 184.445 67.8106 181.644 69.7597 180.105C71.0082 179.12 72.4916 178.824 74.1694 179.225C78.4251 180.242 79.6728 185.628 79.6849 185.682C79.7285 185.878 79.9238 186.002 80.1191 185.958C80.3152 185.915 80.4387 185.721 80.3951 185.524C80.3418 185.284 79.0401 179.64 74.3381 178.517C72.4327 178.062 70.7403 178.403 69.3085 179.534C67.2376 181.168 66.2724 184.122 66.2724 185.603C66.2732 185.804 66.4362 185.967 66.6372 185.967Z" fill="#683089"/>
<path d="M68.5442 188.218C68.5442 188.218 68.8299 181.78 73.6892 182.29C78.5477 182.8 78.7818 193.422 74.4374 194.795C68.0818 196.803 68.5442 188.218 68.5442 188.218Z" fill="#683089"/>
<path d="M152.488 112.538C152.532 112.668 152.602 112.845 152.661 113.004L152.851 113.495L153.243 114.487C153.505 115.15 153.782 115.811 154.055 116.474C154.601 117.801 155.173 119.117 155.749 120.432C156.322 121.747 156.917 123.051 157.521 124.348C158.126 125.644 158.727 126.94 159.361 128.212C160.622 130.758 161.903 133.279 163.267 135.683C163.944 136.887 164.633 138.067 165.33 139.199C166.022 140.331 166.745 141.412 167.44 142.379C167.787 142.858 168.131 143.313 168.449 143.695C168.762 144.078 169.062 144.405 169.219 144.572C169.292 144.653 169.335 144.7 169.256 144.666C169.218 144.652 169.142 144.614 169.021 144.565C168.887 144.508 168.708 144.435 168.426 144.354C168.35 144.331 168.267 144.308 168.186 144.29L167.998 144.247C167.913 144.229 167.826 144.212 167.74 144.199C167.445 144.148 167.184 144.132 167.007 144.127C166.632 144.12 166.441 144.151 166.323 144.173C166.101 144.221 166.148 144.249 166.254 144.239C166.486 144.226 166.974 144.103 167.482 143.938C168 143.771 168.571 143.564 169.155 143.329C170.326 142.852 171.557 142.288 172.794 141.692C174.037 141.1 175.271 140.438 176.517 139.771C177.764 139.106 179 138.398 180.234 137.677C181.472 136.963 182.691 136.207 183.911 135.451C184.519 135.069 185.12 134.679 185.721 134.29C186.022 134.097 186.318 133.897 186.614 133.699L187.054 133.402L187.474 133.112L187.493 133.099C190.658 130.913 194.997 131.707 197.182 134.873C199.368 138.038 198.574 142.377 195.408 144.563C195.363 144.594 195.29 144.643 195.244 144.672L187.596 149.64C186.32 150.464 185.032 151.277 183.736 152.1C182.438 152.922 181.112 153.716 179.766 154.532C178.412 155.339 177.028 156.135 175.531 156.912C174.781 157.302 174.006 157.694 173.158 158.076C172.298 158.458 171.399 158.84 170.206 159.205C169.601 159.384 168.925 159.567 167.97 159.694C167.486 159.755 166.926 159.805 166.183 159.778C165.822 159.766 165.378 159.726 164.901 159.646C164.77 159.622 164.639 159.597 164.508 159.568L164.314 159.525L164.186 159.493C164.018 159.449 163.846 159.402 163.681 159.353C163.048 159.158 162.529 158.942 162.064 158.725C161.613 158.511 161.216 158.293 160.866 158.083C160.161 157.66 159.615 157.262 159.117 156.877C158.137 156.109 157.384 155.399 156.69 154.707C156 154.016 155.385 153.35 154.799 152.689C153.633 151.372 152.609 150.077 151.611 148.796C150.619 147.513 149.68 146.236 148.769 144.957C146.959 142.396 145.219 139.854 143.545 137.291C142.712 136.008 141.868 134.735 141.049 133.451L138.599 129.601L136.177 125.736L134.969 123.791L133.738 121.792L133.553 121.491C130.501 116.537 132.043 110.046 136.997 106.995C141.952 103.943 148.442 105.486 151.494 110.439C151.901 111.097 152.242 111.837 152.488 112.538Z" fill="#97B0FD"/>
<path d="M163.289 149.583C163.224 149.583 163.158 149.566 163.097 149.532C162.905 149.426 162.835 149.184 162.941 148.992C164.256 146.615 167.859 143.63 168.011 143.505C168.181 143.365 168.431 143.389 168.571 143.559C168.711 143.728 168.687 143.979 168.517 144.119C168.481 144.149 164.879 147.133 163.638 149.378C163.565 149.508 163.429 149.583 163.289 149.583Z" fill="#684D3C"/>
<path d="M163.289 145.357C163.085 145.357 162.91 145.2 162.893 144.993C162.874 144.774 163.036 144.581 163.255 144.562C163.278 144.56 165.593 144.36 167.348 144.174C167.569 144.149 167.762 144.308 167.786 144.527C167.809 144.746 167.65 144.942 167.432 144.964C165.67 145.152 163.347 145.352 163.324 145.354C163.312 145.356 163.3 145.357 163.289 145.357Z" fill="#684D3C"/>
<path d="M188.188 135.671C188.029 134.605 189.289 133.223 189.813 131.901C190.505 130.157 192.08 127.755 193.324 126.633C195.193 124.949 200.966 120.291 203.045 120.494C205.124 120.696 200.456 125.099 199.516 126.021C198.577 126.943 198.281 127.915 198.281 127.915C198.281 127.915 209.774 118.643 211.406 118.988C213.037 119.333 207.026 125.265 205.53 126.722C205.53 126.722 214.578 120.216 215.544 120.762C217.482 121.856 207.644 129.37 207.644 129.37C207.644 129.37 215.535 124.285 216.333 125.606C217.179 127.005 208.713 132.43 208.713 132.43C208.713 132.43 214.341 129.866 215.549 130.691C216.757 131.516 205.356 137.811 203.486 138.567C201.617 139.324 197.653 141.86 195.077 142.423C193.328 142.804 188.696 139.046 188.188 135.671Z" fill="#E49764"/>
<path d="M206.411 135.222C206.61 135.171 206.745 134.979 206.718 134.77C206.1 129.867 202.046 127.132 201.874 127.018C201.683 126.892 201.426 126.943 201.3 127.135C201.174 127.325 201.226 127.582 201.416 127.708C201.455 127.734 205.327 130.356 205.896 134.873C205.925 135.1 206.132 135.26 206.358 135.232C206.377 135.23 206.394 135.227 206.411 135.222Z" fill="#D1703A"/>
<path d="M196.27 137.71C196.429 137.669 196.555 137.535 196.578 137.364C197.234 132.463 200.956 131.377 200.993 131.366C201.213 131.305 201.343 131.077 201.281 130.857C201.221 130.639 200.997 130.511 200.779 130.566C200.777 130.567 200.774 130.568 200.771 130.569C200.596 130.617 196.484 131.817 195.756 137.254C195.725 137.481 195.885 137.689 196.111 137.719C196.167 137.726 196.22 137.723 196.27 137.71Z" fill="#D1703A"/>
<path d="M88.1711 149.944C87.9984 153.317 87.9242 156.648 87.9863 159.972C87.9855 159.983 87.9871 159.998 87.9871 160.01C88.0121 161.372 88.0606 162.733 88.1332 164.095C88.1485 164.427 88.1679 164.798 88.1961 165.206C88.2074 165.415 88.2204 165.638 88.2333 165.867C88.3769 168.344 88.6094 171.85 88.9088 175.715C88.9225 175.912 88.9346 176.112 88.9532 176.313C89.6311 185.053 90.6601 195.412 91.8973 199.841C91.9393 200 91.9861 200.15 92.0289 200.295C92.1201 200.344 92.2072 200.393 92.2944 200.439C99.2456 204.182 106.969 206.165 114.629 206.761C114.9 206.783 115.166 206.806 115.436 206.82C116.751 206.906 118.061 206.953 119.36 206.962C121.122 206.969 122.878 206.907 124.604 206.781C126.135 206.668 127.644 206.504 129.13 206.29C135.519 205.375 141.431 203.564 146.277 201.107C146.462 201.013 146.647 200.918 146.83 200.821C148.11 200.151 149.31 199.433 150.418 198.673C150.59 198.559 150.757 198.445 150.922 198.323C151.612 197.838 152.262 197.331 152.875 196.813C152.373 194.372 151.863 191.438 151.38 188.292C151.338 188.029 151.294 187.769 151.257 187.505C150.591 183.123 149.964 178.386 149.436 174.043C149.412 173.836 149.387 173.635 149.359 173.43C149.088 171.16 148.842 169.005 148.634 167.083C148.616 166.878 148.59 166.672 148.569 166.477C148.424 165.13 148.298 163.906 148.195 162.85C148.173 162.628 148.153 162.416 148.134 162.211C148.103 161.909 148.073 161.607 148.049 161.31C148.025 161.077 148.006 160.846 147.983 160.619V160.614C147.91 159.774 147.847 158.949 147.789 158.139C147.688 156.844 147.611 155.587 147.547 154.359C147.477 152.962 147.421 151.6 147.382 150.282C147.347 148.865 147.328 147.496 147.326 146.172C147.328 145.534 147.332 144.907 147.34 144.291V144.288C147.35 143.538 147.362 142.804 147.383 142.084C147.513 137.461 147.852 133.459 148.275 129.983C148.305 129.742 148.335 129.509 148.365 129.276C148.542 127.89 148.73 126.599 148.923 125.386C148.969 125.118 149.009 124.857 149.052 124.594C150.158 117.897 151.311 113.776 150.923 111.197C150.117 105.837 145.927 104.753 141.499 103.259C141.291 103.188 141.084 103.12 140.875 103.047C140.127 102.786 139.375 102.509 138.641 102.193C138.328 102.061 138.018 101.922 137.716 101.772C137.603 101.717 137.493 101.663 137.388 101.609C137.292 101.56 137.196 101.51 137.102 101.462C136.342 101.05 135.606 100.58 134.919 100.02V100.017C133.954 99.2376 133.077 98.2788 132.333 97.0771L116.382 96.3274C116.382 96.3274 115.361 97.0771 113.55 97.973C113.274 98.1102 112.979 98.249 112.667 98.391C112.442 98.4911 112.214 98.5904 111.97 98.6913C111.692 98.8075 111.4 98.9229 111.097 99.0351C111.007 99.0682 110.911 99.1037 110.816 99.1368C110.716 99.1739 110.613 99.2094 110.51 99.2441C110.36 99.2982 110.202 99.3514 110.042 99.4031C108.603 99.8728 106.914 100.298 104.977 100.573C104.784 100.599 104.59 100.628 104.385 100.651C104.25 100.665 104.109 100.682 103.964 100.702C102.646 100.849 101.425 101.216 100.29 101.796C100.071 101.906 99.8549 102.022 99.6467 102.153C94.9593 104.967 91.9917 111.593 90.9297 121.204C90.6351 123.877 90.3413 126.477 90.0572 129.027C90.0274 129.305 89.9983 129.583 89.9668 129.856C89.9055 130.414 89.8466 130.967 89.7852 131.521V131.523C89.7618 131.727 89.7384 131.927 89.7191 132.128C89.4995 134.1 89.2954 136.044 89.1025 137.963C89.0855 138.169 89.0646 138.376 89.0428 138.587C89.0307 138.696 89.0185 138.799 89.0088 138.906L88.9047 140.028C88.5892 143.395 88.3333 146.687 88.1711 149.944Z" fill="#465EA8"/>
<path d="M147.435 140.88C147.219 140.88 147.041 140.706 147.037 140.489C147.035 140.372 146.848 128.697 149.538 119.63C149.601 119.419 149.822 119.299 150.033 119.362C150.244 119.424 150.364 119.646 150.301 119.857C147.646 128.807 147.831 140.359 147.833 140.475C147.837 140.694 147.663 140.876 147.442 140.88C147.441 140.88 147.438 140.88 147.435 140.88Z" fill="#304894"/>
<path d="M148.193 164.873C148.193 164.873 149.577 171.058 151.516 174.115C153.456 177.173 152.506 181.13 149.855 181.628C147.203 182.126 148.193 164.873 148.193 164.873Z" fill="#2F468D"/>
<path d="M88.0275 161.622C88.0275 161.622 87.9129 169.289 86.1333 172.85C84.3529 176.41 85.7225 181.335 91.8844 181.303C98.0455 181.271 88.0275 161.622 88.0275 161.622Z" fill="#2F468D"/>
<path d="M126.184 155.151L119.325 166.693L112.111 155.372L118.95 142.759L126.184 155.151Z" fill="#97B0FC"/>
<path d="M112.36 155.159L105.501 166.701L98.2868 155.38L105.127 142.768L112.36 155.159Z" fill="#97B0FC"/>
<path d="M139.817 155.019L132.958 166.561L125.745 155.239L132.584 142.627L139.817 155.019Z" fill="#97B0FC"/>
<path d="M139.004 154.858L139.473 155.599L146.218 166.18L148.193 162.852C148.17 162.63 148.15 162.417 148.132 162.212C148.101 161.911 148.071 161.609 148.047 161.312C148.023 161.078 148.003 160.848 147.981 160.621V160.616C147.907 159.775 147.845 158.95 147.787 158.141C147.686 156.845 147.609 155.589 147.545 154.361C147.475 152.964 147.419 151.602 147.379 150.283C147.345 148.867 147.325 147.497 147.324 146.174C147.325 145.535 147.329 144.909 147.337 144.292L139.35 154.219L139.004 154.858Z" fill="#97B0FC"/>
<path d="M88.1711 149.944C87.9984 153.317 87.9241 156.648 87.9863 159.972L92.3638 166.84L98.7468 156.099L99.223 155.298L98.7605 154.506L91.9885 142.905L88.1711 149.944Z" fill="#97B0FC"/>
<path d="M110.813 99.14L125.328 129.281L137.386 101.61C137.289 101.56 137.193 101.511 137.099 101.463C136.338 101.053 135.604 100.581 134.916 100.02V100.018C133.952 99.2368 133.073 98.2805 132.329 97.0771L116.379 96.3274C116.379 96.3274 115.359 97.078 113.549 97.9738C113.273 98.111 112.977 98.2498 112.665 98.3918C112.44 98.4935 112.212 98.5928 111.968 98.6937C111.69 98.8083 111.398 98.9261 111.095 99.0359C111.003 99.0714 110.908 99.1053 110.813 99.14Z" fill="#97B0FC"/>
<path d="M113.548 97.9745L125.452 123.289L134.915 100.02V100.019C133.951 99.2376 133.073 98.2812 132.329 97.0779L116.379 96.3281C116.379 96.3281 115.359 97.0787 113.548 97.9745Z" fill="#FFFCF2"/>
<path d="M123.922 105.457C123.9 105.935 124.269 106.341 124.748 106.364C125.226 106.386 125.632 106.017 125.655 105.538C125.678 105.06 125.308 104.654 124.829 104.631C124.351 104.609 123.945 104.978 123.922 105.457Z" fill="#CCC5B9"/>
<path d="M123.737 109.394C123.715 109.873 124.084 110.279 124.563 110.301C125.042 110.324 125.448 109.954 125.47 109.476C125.493 108.997 125.123 108.591 124.645 108.569C124.166 108.546 123.76 108.916 123.737 109.394Z" fill="#CCC5B9"/>
<path d="M123.552 113.333C123.529 113.811 123.899 114.217 124.377 114.24C124.856 114.262 125.262 113.893 125.285 113.414C125.307 112.936 124.937 112.53 124.459 112.507C123.981 112.484 123.574 112.854 123.552 113.333Z" fill="#CCC5B9"/>
<path d="M132.51 187.813C126.522 187.531 120.058 185.529 113.322 181.825C104.078 176.741 97.4821 170.177 97.4168 170.111C97.2425 169.937 97.2433 169.654 97.4176 169.48C97.5927 169.306 97.8752 169.306 98.0487 169.481C98.1133 169.546 104.633 176.032 113.77 181.052C122.152 185.657 134.521 189.94 145.852 184.184C146.072 184.072 146.341 184.16 146.453 184.38C146.565 184.599 146.477 184.868 146.257 184.98C142.075 187.104 137.454 188.046 132.51 187.813Z" fill="#97B0FC"/>
<path d="M133.026 183.169C133.023 183.169 133.021 183.169 133.019 183.168C123.67 182.577 116.618 169.752 116.322 169.205C116.205 168.988 116.285 168.718 116.502 168.6C116.718 168.482 116.99 168.563 117.107 168.78C117.178 168.909 124.22 181.717 133.075 182.276C133.321 182.292 133.508 182.504 133.492 182.75C133.477 182.995 133.269 183.18 133.026 183.169Z" fill="#97B0FC"/>
<path d="M119.345 83.2874C118.533 95.993 111.584 84.6917 111.564 71.2437C111.552 64.1569 116.236 64.7888 116.236 64.7888C116.236 64.7888 116.316 57.2081 125.506 55.8781C134.182 54.6231 136.239 60.6349 141.547 60.3597C146.881 60.0829 146.973 69.4335 141.426 68.7039C135.879 67.9751 118.128 71.4366 119.345 83.2874Z" fill="white"/>
<path d="M132.956 94.0811L132.714 99.222C132.232 99.5763 131.746 99.8814 131.26 100.142C124.16 103.964 115.593 97.6951 115.593 97.6951L117.121 85.0654L131.077 93.9875L132.956 94.0811Z" fill="#E49764"/>
<path d="M132.956 94.0811L132.714 99.2221C132.232 99.5764 131.746 99.8815 131.26 100.142C125.49 97.5386 121.5 91.1685 121.5 91.1685L131.076 93.9875L132.956 94.0811Z" fill="#342216"/>
<path d="M132.821 96.9446C132.821 96.9446 135.094 97.2843 134.642 100.438L131.082 109.173L125.671 101.529C125.671 101.529 131.018 99.4997 132.821 96.9446Z" fill="#FFFCF2"/>
<path d="M116.016 95.3345C116.016 95.3345 114.387 95.5443 114.182 98.4481L118.461 107.113L125.519 101.522C125.519 101.522 117.375 98.1511 116.016 95.3345Z" fill="#FFFCF2"/>
<path d="M130.913 109.032C131.023 109.037 131.136 109.003 131.226 108.926C131.417 108.765 131.442 108.479 131.28 108.288L125.838 101.833C125.678 101.643 125.396 101.617 125.205 101.775L118.757 107.066C118.563 107.225 118.535 107.51 118.694 107.703C118.853 107.897 119.139 107.924 119.332 107.766L125.434 102.758L130.588 108.871C130.672 108.972 130.791 109.027 130.913 109.032Z" fill="#CCC5B9"/>
<path d="M135.256 62.906C135.256 62.906 144.823 64.2619 140.881 74.1508C140.881 74.1508 134.91 65.5225 135.256 62.906Z" fill="#9A836C"/>
<path d="M138.699 77.8551C138.699 77.8551 141.084 75.2926 142.234 78.0213C143.385 80.75 142.15 86.1048 138.754 85.0589L138.699 77.8551Z" fill="#D1703A"/>
<path d="M141.461 87.363C141.461 87.363 140.668 94.8283 131.835 94.3941C123.055 93.9655 117.806 87.7673 117.509 87.4437C117.504 87.438 117.5 87.4356 117.5 87.4356L117.485 85.7029L117.408 76.7106L117.366 71.9046C117.366 71.9046 116.65 63.2198 125.198 62.0447C131.443 61.1852 137.202 62.4531 139.985 65.7177C141.01 66.9218 141.63 68.3979 141.722 70.1395L141.591 78.763L141.559 80.8766L141.461 87.363Z" fill="#E49764"/>
<path d="M130.952 76.8656C130.82 76.8381 130.707 76.7429 130.664 76.6057C130.661 76.5952 130.299 75.4774 129.521 75.4104C128.672 75.3362 128.05 75.9399 128.044 75.9455C127.895 76.0932 127.653 76.0932 127.505 75.9447C127.356 75.7962 127.355 75.5565 127.503 75.4072C127.538 75.3717 128.374 74.5445 129.587 74.6502C130.875 74.7624 131.371 76.3127 131.392 76.3789C131.455 76.5799 131.342 76.7938 131.141 76.8567C131.078 76.8761 131.013 76.8785 130.952 76.8656Z" fill="#342216"/>
<path d="M136.486 76.789C136.481 76.7882 136.475 76.7866 136.47 76.785C136.265 76.7333 136.142 76.5259 136.194 76.3217C136.208 76.2636 136.57 74.89 137.695 74.7318C138.745 74.5833 139.511 75.2661 139.544 75.2951C139.699 75.4364 139.711 75.6777 139.569 75.8334C139.428 75.9892 139.189 76.0013 139.033 75.8609C139.021 75.8512 138.487 75.3904 137.802 75.4864C137.187 75.5728 136.935 76.5001 136.933 76.509C136.883 76.7075 136.685 76.8302 136.486 76.789Z" fill="#342216"/>
<path d="M128.628 83.1057C128.578 83.1057 128.528 83.0936 128.482 83.067C128.338 82.9863 128.288 82.8039 128.368 82.6602C129.553 80.5578 131.689 79.7484 131.779 79.7145C131.933 79.6572 132.105 79.7363 132.162 79.8904C132.22 80.0445 132.141 80.2165 131.986 80.2738C131.966 80.281 129.963 81.0469 128.889 82.9532C128.833 83.0508 128.732 83.1057 128.628 83.1057Z" fill="#D1703A"/>
<path d="M139.026 83.5942C138.9 83.5942 138.784 83.5151 138.742 83.39C138.2 81.767 136.194 80.6356 136.174 80.6243C136.031 80.5444 135.978 80.362 136.058 80.2183C136.138 80.0746 136.319 80.0222 136.464 80.1021C136.554 80.1521 138.691 81.3554 139.308 83.2004C139.36 83.357 139.276 83.5256 139.119 83.5781C139.088 83.5894 139.056 83.5942 139.026 83.5942Z" fill="#D1703A"/>
<path d="M133.032 67.8121C129.643 67.8121 127.188 66.658 127.046 66.5894C126.897 66.5176 126.835 66.34 126.906 66.1915C126.977 66.043 127.154 65.9801 127.304 66.0519C127.351 66.0745 132.074 68.2883 137.356 66.5208C137.512 66.4684 137.681 66.5531 137.733 66.7089C137.786 66.8654 137.701 67.0341 137.545 67.0866C135.948 67.6209 134.412 67.8121 133.032 67.8121Z" fill="#D1703A"/>
<path d="M133.052 69.6627C130.743 69.6627 128.61 68.8573 128.478 68.8064C128.324 68.7475 128.247 68.5748 128.306 68.4207C128.365 68.2673 128.538 68.1898 128.692 68.2487C128.738 68.2665 133.311 69.9904 136.102 68.3561C136.244 68.2722 136.427 68.3206 136.51 68.4626C136.593 68.6047 136.545 68.7879 136.403 68.871C135.394 69.4626 134.201 69.6627 133.052 69.6627Z" fill="#D1703A"/>
<path d="M135.384 85.2509C135.022 85.259 134.617 85.2203 134.168 85.1113C131.844 84.5496 130.338 82.4262 130.275 82.3367C130.179 82.1986 130.212 82.0098 130.35 81.913C130.487 81.8161 130.676 81.85 130.773 81.9872C130.788 82.0074 132.215 84.0129 134.311 84.5198C136.387 85.0217 137.316 83.8079 137.325 83.7958C137.425 83.6602 137.616 83.632 137.751 83.7321C137.886 83.8321 137.915 84.0226 137.815 84.1582C137.775 84.2098 137.009 85.213 135.384 85.2509Z" fill="#342216"/>
<path d="M135.816 86.8361C135.973 86.7554 136.068 86.6916 136.083 86.6811C136.266 86.5552 136.313 86.3042 136.187 86.121C136.061 85.9378 135.813 85.8894 135.628 86.0161C135.574 86.0524 134.362 86.8498 133.068 86.1452C132.873 86.0387 132.628 86.1105 132.521 86.3067C132.415 86.502 132.488 86.7465 132.683 86.853C134.024 87.5834 135.282 87.1105 135.816 86.8361Z" fill="#D1703A"/>
<path d="M129.802 78.1788C129.547 78.1506 129.28 78.0755 129.002 77.9545C128.887 77.9044 128.835 77.7713 128.885 77.6567C128.935 77.5421 129.068 77.4888 129.183 77.5396C129.71 77.7688 130.177 77.8003 130.569 77.6333C131.171 77.3774 131.413 76.7431 131.416 76.7366C131.459 76.6196 131.589 76.5591 131.707 76.6034C131.824 76.647 131.884 76.7778 131.84 76.8948C131.828 76.9287 131.526 77.7188 130.747 78.0497C130.455 78.174 130.14 78.2168 129.802 78.1788Z" fill="#D1703A"/>
<path d="M137.679 78.1899C137.305 78.198 136.975 78.1149 136.693 77.9405C136.005 77.5152 135.882 76.7065 135.878 76.6726C135.86 76.5492 135.947 76.4346 136.07 76.4168C136.194 76.3982 136.308 76.4854 136.326 76.6089C136.328 76.6194 136.428 77.2481 136.934 77.558C137.311 77.7888 137.829 77.7969 138.472 77.5822C138.591 77.5426 138.719 77.6064 138.758 77.725C138.798 77.8437 138.734 77.972 138.616 78.0116C138.278 78.1245 137.966 78.1843 137.679 78.1899Z" fill="#D1703A"/>
<path d="M129.602 79.2586C129.574 79.8575 128.318 80.2844 126.798 80.2126C125.277 80.1408 124.067 79.5984 124.095 78.9996C124.123 78.4007 125.379 77.9738 126.899 78.0448C128.421 78.1175 129.631 78.6606 129.602 79.2586Z" fill="#D1703A"/>
<path d="M140.773 80.839C140.559 80.8503 140.336 80.8503 140.108 80.8398C138.588 80.768 137.378 80.2248 137.407 79.626C137.435 79.0271 138.691 78.5994 140.21 78.6712C140.416 78.6809 140.616 78.6995 140.807 78.7261L140.773 80.839Z" fill="#D1703A"/>
<path d="M133.425 80.2847C133.238 80.2759 133.094 80.1177 133.103 79.9304C133.111 79.7432 133.27 79.5995 133.457 79.6084C134.701 79.6665 135.312 79.0394 135.52 78.7618C134.301 75.9169 133.092 73.0511 133.08 73.022C133.007 72.8501 133.088 72.6516 133.261 72.5789C133.433 72.5063 133.632 72.587 133.705 72.7597C133.718 72.7896 134.972 75.766 136.214 78.6625C136.254 78.7562 136.25 78.8627 136.202 78.9531C136.172 79.0104 135.43 80.3792 133.425 80.2847Z" fill="#342216"/>
<path d="M123.655 73.0887C123.988 71.8394 125.151 69.5191 129.195 69.5296C129.689 69.5304 130.116 69.8766 130.225 70.3584C130.361 70.9629 129.953 71.5609 129.338 71.6408C128.259 71.7813 126.677 72.2929 125.709 73.9983C125.406 74.5309 124.699 74.6722 124.195 74.3251L124.078 74.2444C123.704 73.9878 123.539 73.5253 123.655 73.0887Z" fill="#9A836C"/>
<path d="M141.199 73.2915C140.907 72.1245 139.858 69.9479 136.093 69.8995C135.634 69.8938 135.231 70.2094 135.123 70.6557C134.988 71.2166 135.359 71.7791 135.93 71.8622C136.933 72.0083 138.397 72.5071 139.274 74.1083C139.548 74.6087 140.204 74.7499 140.679 74.4343L140.79 74.3609C141.14 74.1277 141.301 73.6999 141.199 73.2915Z" fill="#9A836C"/>
<path d="M120.313 84.2322C120.278 84.3056 119.458 85.9859 118.281 86.9463C117.877 87.2764 117.358 87.4322 116.837 87.412L117.043 85.7083C117.043 85.7083 118.821 85.534 120.313 84.2322Z" fill="#342216"/>
<path d="M119.076 78.4515C119.076 78.4515 115.996 73.8812 113.425 77.2385C111.305 80.0043 114.707 87.6326 118.755 85.2639L119.076 78.4515Z" fill="#E49764"/>
<path d="M118.368 83.9123C118.198 83.9042 118.057 83.7695 118.047 83.5951C117.839 80.2361 115.094 78.9392 114.978 78.8859C114.807 78.8085 114.733 78.6075 114.811 78.438C114.888 78.2685 115.088 78.1927 115.258 78.2701C115.39 78.3299 118.489 79.7793 118.724 83.554C118.735 83.7404 118.594 83.901 118.407 83.9131C118.393 83.9131 118.381 83.9131 118.368 83.9123Z" fill="#342216"/>
<path d="M115.308 81.7136C115.21 81.7087 115.115 81.6619 115.052 81.5764C114.941 81.4263 114.973 81.214 115.123 81.1026C115.263 80.9993 116.521 80.1002 117.525 80.4085C117.703 80.4634 117.804 80.6531 117.749 80.8314C117.694 81.0098 117.504 81.1107 117.326 81.0558C116.75 80.8791 115.81 81.4375 115.526 81.6474C115.46 81.6958 115.384 81.7168 115.308 81.7136Z" fill="#342216"/>
<path d="M140.458 65.7394C140.381 66.0243 140.239 66.2681 140.029 66.4577C138.193 68.1186 134.081 67.3051 130.294 66.0001C126.507 64.6967 123.687 67.2099 123.687 67.2099C124.59 70.7448 120.962 70.8562 121.608 73.5324C122.255 76.2102 121.794 79.6806 121.794 79.6806L119.554 79.2932C119.127 78.0293 118.109 77.1722 117.414 76.7106L117.367 71.9038C117.367 71.9038 116.175 62.9922 124.902 61.8244C131.279 60.9713 137.613 62.4717 140.458 65.7394Z" fill="white"/>
<path d="M129.726 81.0612C127.176 81.3517 124.866 79.5141 124.575 76.9637C124.285 74.4142 126.123 72.1044 128.673 71.8139C131.222 71.5234 133.533 73.361 133.823 75.9105C134.113 78.4608 132.275 80.7714 129.726 81.0612ZM128.75 72.4967C126.577 72.7444 125.01 74.7137 125.257 76.8863C125.505 79.0597 127.474 80.6262 129.648 80.3792C131.821 80.1314 133.387 78.1622 133.14 75.9888C132.893 73.8162 130.923 72.2489 128.75 72.4967Z" fill="#FFFCF2"/>
<path d="M140.46 81.2177C137.91 81.5082 135.6 79.6705 135.309 77.1202C135.018 74.5707 136.856 72.2609 139.406 71.9704C141.956 71.6799 144.267 73.5175 144.557 76.067C144.848 78.6165 143.01 80.9271 140.46 81.2177ZM139.485 72.6532C137.311 72.9009 135.745 74.8702 135.993 77.0428C136.24 79.2162 138.21 80.7827 140.383 80.5349C142.556 80.2871 144.123 78.3179 143.876 76.1445C143.627 73.9719 141.658 72.4054 139.485 72.6532Z" fill="#FFFCF2"/>
<path d="M135.376 77.0033C134.675 76.2462 133.867 76.8491 133.776 76.9209L133.345 76.3859C133.818 76.0017 134.957 75.5384 135.88 76.5368L135.376 77.0033Z" fill="#FFFCF2"/>
<path d="M124.97 75.6C124.869 75.6113 124.764 75.5782 124.688 75.5016C124.65 75.4725 124.055 75.0335 121.588 74.9164C121.399 74.9076 121.252 74.7469 121.261 74.5573C121.269 74.3676 121.435 74.2183 121.62 74.2304C124.46 74.3644 125.09 74.9205 125.188 75.031C125.314 75.1731 125.3 75.3902 125.159 75.5153C125.104 75.5645 125.038 75.5927 124.97 75.6Z" fill="#FFFCF2"/>
<path d="M143.83 77.4227C143.744 77.4324 143.653 77.4171 143.572 77.3703C142.903 76.9966 141.661 76.9683 141.238 76.9893C141.001 77.0014 140.799 76.8182 140.787 76.581C140.775 76.3445 140.957 76.1395 141.195 76.1306C141.267 76.1274 142.974 76.0507 143.991 76.6205C144.198 76.7359 144.271 76.9982 144.155 77.2048C144.085 77.3307 143.962 77.4074 143.83 77.4227Z" fill="#FFFCF2"/>
<path d="M179.898 267.354L181.116 279.856L192.414 278.541L190.474 266.441L179.898 267.354Z" fill="#E49764"/>
<path d="M216.835 291.921L177.997 291.539C177.713 291.057 177.563 290.374 177.508 289.562C177.3 286.553 178.404 281.767 178.952 278.747C179.019 278.393 179.077 278.065 179.122 277.765C179.198 277.262 179.247 276.84 179.251 276.532C179.28 274.063 180.253 274.679 180.253 274.679C182.584 275.16 185.013 275.952 186.664 275.521C187.668 275.259 188.643 274.856 189.55 274.566C190.731 274.19 191.79 274.01 192.641 274.59C192.641 274.59 193.752 275.334 196.806 277.903C199.301 280.002 203.251 281.54 207.037 282.991C207.881 283.312 208.717 283.632 209.529 283.951C214.797 286.026 216.582 288.067 217.073 289.561C217.118 289.694 217.151 289.824 217.175 289.949C217.414 291.154 216.835 291.921 216.835 291.921Z" fill="#684D3C"/>
<path d="M216.835 291.921L177.997 291.539C177.713 291.057 177.563 290.374 177.508 289.562H217.073C217.118 289.695 217.151 289.825 217.175 289.949C217.414 291.154 216.835 291.921 216.835 291.921Z" fill="#342216"/>
<path d="M119.725 185.531C119.725 185.531 139.817 188.274 150.366 181.302C150.366 181.302 179.142 190.454 185.612 201.052C192.082 211.649 192.276 269.857 192.276 269.857L178.848 270.825C178.848 270.825 175.96 250.831 171.441 239.877C167.464 230.235 166.726 211.61 166.726 211.61L119.725 185.531Z" fill="#333C5B"/>
<path d="M178.847 267.555C178.589 267.555 178.37 267.355 178.352 267.094C178.332 266.819 178.538 266.581 178.813 266.562L191.776 265.634C192.049 265.617 192.289 265.821 192.308 266.095C192.328 266.37 192.122 266.607 191.847 266.627L178.884 267.554C178.871 267.554 178.859 267.555 178.847 267.555Z" fill="#97B0FC"/>
<path d="M144.317 270.084V279.856H156.025L157.154 270.084H144.317Z" fill="#E49764"/>
<path d="M166.159 291.921H142.113C142.113 291.921 142.062 291.513 142.019 290.85C142.003 290.6 141.988 290.314 141.978 289.998C141.975 289.936 141.974 289.872 141.971 289.807C141.969 289.722 141.967 289.638 141.967 289.55C141.949 288.424 142 287.032 142.236 285.678C142.46 284.415 142.79 282.833 143.142 281.316C143.284 280.713 143.427 280.119 143.571 279.562C143.926 278.175 144.271 277.01 144.522 276.456C144.857 275.723 145.161 274.627 146.311 273.787C147.256 273.099 148.774 272.584 151.349 272.584C154.586 272.584 155.798 272.99 156.531 273.838C156.774 274.118 156.965 274.446 157.158 274.825C157.246 274.998 158.063 277.488 158.168 277.651C159.1 279.117 157.347 278.445 161.892 281.661C165.211 284.007 166.029 287.559 166.186 289.806C166.19 289.872 166.194 289.936 166.198 289.998C166.265 291.156 166.159 291.921 166.159 291.921Z" fill="#684D3C"/>
<path d="M166.2 289.998C166.265 291.155 166.159 291.92 166.159 291.92H142.113C142.113 291.92 142.062 291.513 142.019 290.85C142.003 290.599 141.988 290.314 141.978 289.998H166.2Z" fill="#342216"/>
<path d="M89.3252 180.846C89.3252 180.846 86.1172 189.614 91.2412 201.207C96.366 212.799 135.165 217.052 141.964 216.77C141.964 216.77 140.64 235.417 140.967 248.577C141.294 261.737 143.102 271.617 143.102 271.617L157.751 271.129C157.751 271.129 169.749 219.116 166.222 204.214C162.693 189.311 89.3252 180.846 89.3252 180.846Z" fill="#333C5B"/>
<path d="M143.233 268.87C142.968 268.87 142.748 268.662 142.736 268.395C142.724 268.12 142.937 267.888 143.211 267.876L157.728 267.229C158.005 267.218 158.235 267.43 158.247 267.704C158.259 267.978 158.047 268.211 157.773 268.223L143.255 268.869C143.247 268.87 143.24 268.87 143.233 268.87Z" fill="#97B0FC"/>
<path d="M166.89 214.964C166.846 214.964 166.8 214.959 166.755 214.946C166.491 214.872 166.336 214.597 166.411 214.332C166.434 214.249 168.7 205.916 164.341 200.752C159.988 195.596 132.458 187.92 132.18 187.842C131.915 187.769 131.76 187.494 131.834 187.23C131.907 186.965 132.181 186.809 132.446 186.884C133.592 187.201 160.553 194.721 165.102 200.11C169.805 205.68 167.471 214.239 167.369 214.601C167.306 214.821 167.107 214.964 166.89 214.964Z" fill="#97B0FC"/>
<path d="M145.124 268.31C144.856 268.31 144.635 268.096 144.627 267.826C144.625 267.733 144.372 258.371 143.82 245.786C143.317 234.301 145.515 215.715 145.939 212.275C141.85 212.219 116.503 211.655 103.067 206.381C96.9156 203.966 92.8133 198.9 91.204 191.73C89.9975 186.353 90.5995 181.764 90.6262 181.571C90.6633 181.299 90.9119 181.108 91.1863 181.145C91.4583 181.183 91.6495 181.433 91.6124 181.706C91.606 181.752 91.0071 186.336 92.1814 191.541C93.7406 198.456 97.5257 203.137 103.43 205.455C117.828 211.107 146.218 211.286 146.503 211.287C146.646 211.288 146.781 211.349 146.875 211.456C146.969 211.564 147.012 211.706 146.994 211.848C146.967 212.06 144.263 233.197 144.814 245.742C145.366 258.336 145.619 267.707 145.622 267.799C145.629 268.074 145.413 268.303 145.137 268.31C145.133 268.31 145.129 268.31 145.124 268.31Z" fill="#97B0FC"/>
<path d="M109.572 123.094C108.507 124.071 107.421 125.1 106.34 126.139C105.259 127.18 104.179 128.238 103.104 129.305C100.955 131.44 98.8275 133.61 96.734 135.804C92.5534 140.19 88.4786 144.676 84.7468 149.217C82.8897 151.482 81.1117 153.774 79.5848 155.991C78.8254 157.095 78.1289 158.187 77.5857 159.153C77.3145 159.634 77.0854 160.082 76.9231 160.429C76.8424 160.602 76.7787 160.749 76.7375 160.843C76.6955 160.935 76.6778 160.978 76.6794 160.91C76.6794 160.837 76.702 160.674 76.6915 160.258C76.6834 160.058 76.6657 159.772 76.6043 159.439C76.5446 159.084 76.4405 158.654 76.2508 158.165C76.2024 158.036 76.1492 157.908 76.0911 157.783L76.0693 157.736L76.0733 157.746L76.0806 157.766L76.0951 157.807L76.154 157.97L76.2678 158.297L76.3751 158.573L76.4268 158.711L76.4784 158.828C76.5131 158.905 76.5414 158.991 76.5769 159.065C76.6124 159.136 76.6471 159.209 76.6802 159.283C76.7109 159.358 76.7625 159.432 76.8005 159.509L76.861 159.624L76.9441 159.753L77.0264 159.885C77.0539 159.929 77.0781 159.971 77.1192 160.025L77.3412 160.336C77.4178 160.442 77.5252 160.574 77.6156 160.692L77.7568 160.874L77.9239 161.078L78.2604 161.49L78.6365 161.939L79.4218 162.878C79.9617 163.525 80.5113 164.198 81.0528 164.879C82.1359 166.244 83.1641 167.636 84.1527 169.025C86.8661 172.839 85.9735 178.13 82.1601 180.842C78.6373 183.348 73.8547 182.779 71.0066 179.671L70.8944 179.548C69.9275 178.495 68.9591 177.477 67.9648 176.502C67.466 176.015 66.9608 175.532 66.4314 175.037L65.6073 174.268L65.1764 173.866L64.7099 173.422L64.4759 173.199L64.2216 172.948C64.0497 172.776 63.8891 172.622 63.7083 172.434L63.1612 171.86C63.0724 171.769 62.9747 171.657 62.8795 171.549L62.593 171.224L62.3081 170.896L62.02 170.54C61.8295 170.3 61.635 170.069 61.4518 169.816L60.9046 169.058C60.7254 168.803 60.5649 168.548 60.3962 168.29L60.1476 167.903L59.9216 167.524L59.4794 166.764C59.343 166.517 59.2171 166.277 59.0871 166.032L58.8942 165.666L58.8458 165.574L58.8216 165.528L58.8095 165.504L58.774 165.424C58.6788 165.208 58.5884 164.99 58.5036 164.77C58.18 163.913 57.9815 163.102 57.8588 162.361C57.7434 161.641 57.6917 160.965 57.6836 160.373C57.6796 160.215 57.682 160.081 57.6836 159.938C57.6861 159.798 57.6885 159.651 57.6949 159.518C57.7079 159.26 57.7232 158.982 57.7474 158.748L57.7845 158.383L57.8281 158.041C57.858 157.808 57.8927 157.6 57.929 157.388C58.0743 156.552 58.2542 155.836 58.4431 155.182C58.6328 154.529 58.8345 153.939 59.0403 153.384C59.4527 152.276 59.8829 151.303 60.3195 150.389C61.1944 148.566 62.0983 146.965 63.0183 145.429C64.86 142.374 66.7687 139.602 68.7177 136.901C72.6199 131.524 76.6786 126.488 80.8438 121.549C82.9277 119.084 85.0397 116.651 87.1913 114.241C88.2671 113.035 89.3526 111.835 90.4559 110.636C91.5607 109.437 92.6769 108.243 93.8463 107.03L93.877 106.999C98.1883 102.529 105.307 102.401 109.776 106.712C114.246 111.024 114.374 118.142 110.063 122.611C109.91 122.774 109.73 122.948 109.572 123.094Z" fill="#97B0FD"/>
<path d="M76.5955 159.649C76.501 159.649 76.4066 159.616 76.3299 159.548C73.3075 156.847 68.2924 155.121 68.2424 155.103C68.0342 155.032 67.9228 154.806 67.9938 154.598C68.0648 154.39 68.2908 154.279 68.499 154.349C68.7105 154.421 73.7191 156.146 76.861 158.954C77.0248 159.1 77.0385 159.352 76.8924 159.515C76.8142 159.603 76.7052 159.649 76.5955 159.649Z" fill="#304894"/>
<path d="M74.4737 158.064C74.2542 158.064 74.0758 157.886 74.0758 157.666C74.0766 156.389 72.9919 154.14 72.9806 154.118C72.8846 153.92 72.9669 153.682 73.1647 153.586C73.3624 153.49 73.6005 153.572 73.6965 153.77C73.7449 153.868 74.8724 156.206 74.8716 157.666C74.8716 157.887 74.6932 158.064 74.4737 158.064Z" fill="#304894"/>
<path d="M91.7319 141.374C91.6358 141.374 91.5398 141.34 91.4631 141.269C91.3009 141.121 91.2904 140.869 91.4389 140.707L102.931 128.171C103.079 128.009 103.331 127.998 103.493 128.147C103.655 128.295 103.666 128.547 103.517 128.709L92.0256 141.245C91.9473 141.331 91.8392 141.374 91.7319 141.374Z" fill="#304894"/>
<path d="M77.5631 166.498C80.973 166.612 83.9114 168.933 85.0058 172.165C86.0518 175.254 87.3899 179.888 87.607 183.889C87.9451 190.144 84.7782 196.875 82.943 196.547C81.1085 196.219 85.0857 190.164 83.9809 187.24C83.9809 187.24 82.4943 197.262 80.3515 197.766C78.0377 198.312 81.6928 190.807 80.8705 187.465C80.8705 187.465 79.0029 196.9 77.6608 196.598C75.5931 196.133 78.3089 191.475 77.2468 188.232C77.2468 188.232 76.4744 194.784 74.7764 194.841C73.0791 194.897 75.6552 185.924 73.4891 182.558C71.323 179.192 69.0527 176.65 69.8137 173.089C70.3706 170.483 72.8136 166.338 77.5631 166.498Z" fill="#E49764"/>
<path d="M83.8041 170.212C83.8041 170.212 89.4156 178.69 88.1905 181.792C86.9654 184.894 86.0348 185.967 86.0348 185.967L83.8041 170.212Z" fill="#E49764"/>
<path d="M180.477 266.939C180.236 266.939 180.023 266.763 179.985 266.517C179.203 261.43 175.668 243.766 173.914 238.74C170.76 229.707 170.226 224.117 169.837 220.036C169.735 218.973 169.648 218.055 169.526 217.189C168.939 213.007 167.07 207.174 167.051 207.116C166.968 206.854 167.111 206.574 167.373 206.489C167.633 206.405 167.914 206.549 167.999 206.811C168.018 206.869 169.913 212.785 170.511 217.05C170.636 217.937 170.729 218.911 170.827 219.941C171.212 223.971 171.738 229.491 174.852 238.412C176.624 243.485 180.181 261.254 180.968 266.365C181.01 266.636 180.823 266.89 180.551 266.932C180.528 266.937 180.502 266.939 180.477 266.939Z" fill="#97B0FC"/>
<path d="M220.946 59.0678L220.915 59.7344L220.881 60.3446L220.804 61.5422C220.751 62.3356 220.68 63.1224 220.609 63.9085C220.466 65.4799 220.287 67.0448 220.082 68.6105C219.882 70.1761 219.644 71.7418 219.375 73.3091C219.103 74.8773 218.811 76.4494 218.463 78.0256C218.116 79.601 217.729 81.1828 217.288 82.7735C216.85 84.3659 216.348 85.9646 215.76 87.5788C215.172 89.1929 214.501 90.8239 213.679 92.4808C212.854 94.1385 211.875 95.822 210.558 97.5241C209.896 98.3732 209.145 99.227 208.251 100.056C207.362 100.883 206.32 101.689 205.099 102.381C203.884 103.072 202.478 103.637 200.996 103.952C200.626 104.031 200.253 104.094 199.879 104.141L199.307 104.203L198.231 104.317C197.514 104.39 196.792 104.477 196.071 104.561C195.35 104.643 194.628 104.731 193.904 104.825C192.457 104.994 191.004 105.178 189.551 105.368L185.182 105.944L180.802 106.538L176.415 107.138L172.046 107.718L171.974 107.728C169.017 108.121 166.301 106.041 165.909 103.084C165.558 100.445 167.177 97.9995 169.631 97.2239C170.381 96.9858 171.092 96.755 171.822 96.5331C172.548 96.3135 173.273 96.0908 174 95.8794C175.455 95.4565 176.91 95.0384 178.371 94.6454L180.565 94.0554L182.766 93.4913C184.237 93.1232 185.71 92.7512 187.192 92.4146C188.673 92.0733 190.158 91.7343 191.652 91.4155C192.399 91.2573 193.148 91.104 193.901 90.9571C194.653 90.8078 195.403 90.6553 196.162 90.5164L197.298 90.3034L197.582 90.2501L197.725 90.2235L197.796 90.2106L197.831 90.2041C197.837 90.2025 197.832 90.2025 197.833 90.2017C197.828 90.1944 197.821 90.1872 197.815 90.1839C197.787 90.163 197.775 90.1492 197.842 90.0823C197.97 89.9612 198.397 89.5448 198.849 88.8394C199.306 88.1413 199.784 87.2059 200.23 86.1672C200.674 85.1229 201.081 83.9672 201.445 82.7558C202.167 80.3257 202.766 77.6955 203.232 74.9983C203.465 73.6481 203.685 72.2818 203.873 70.9025C204.06 69.5232 204.226 68.1327 204.379 66.7373C204.528 65.3411 204.653 63.9384 204.769 62.5389L204.922 60.4446L204.988 59.41L205.038 58.4528L205.047 58.2785C205.276 53.8889 209.021 50.5162 213.411 50.7454C217.8 50.9722 221.175 54.6782 220.946 59.0678Z" fill="#E49764"/>
<path d="M204.929 56.5678C204.929 56.5678 200.677 75.2431 200.036 80.9789C200.036 80.9789 212.944 87.7469 215.909 91.7265C215.909 91.7265 220.984 80.7238 220.99 78.6634C220.997 76.603 210.088 54.3088 204.929 56.5678Z" fill="#98BDD4"/>
<path d="M159.734 95.9056C159.734 95.9056 154.536 95.5222 152.808 96.2446C151.08 96.9669 147.146 97.8401 146.82 98.9046C146.493 99.9691 155.98 98.5108 155.98 98.5108L159.734 95.9056Z" fill="#D1703A"/>
<path d="M174.255 105.998C174.255 105.998 170.193 107.639 166.976 107.463C163.759 107.287 158.296 108.862 156.153 107.031C154.009 105.201 157.954 105.251 159.391 104.99C160.828 104.73 162.793 103.744 162.534 103.01C162.274 102.275 160.003 101.47 156.89 101.084C153.777 100.698 147.132 101.188 145.683 100.131C144.233 99.0738 148.685 98.5718 151.052 97.8995C153.418 97.2273 154.963 96.4614 159.372 95.9311C162.321 95.5768 173.968 98.6114 173.968 98.6114C173.968 98.6114 176.931 101.238 174.255 105.998Z" fill="#E49764"/>
<path d="M218.611 263.083L217.494 276.346L227.331 276.498L229.566 263.754L218.611 263.083Z" fill="#E49764"/>
<path d="M194.479 291.953L230.416 291.776C230.681 291.289 230.823 290.599 230.879 289.777C231.088 286.736 230.095 281.89 229.605 278.834C229.545 278.477 229.494 278.144 229.455 277.842C229.386 277.331 229.344 276.905 229.342 276.593C229.33 274.097 227.122 274.536 227.122 274.536C223.504 278.12 219.359 272.793 216.964 274.559C216.964 274.559 215.933 275.306 213.092 277.887C210.253 280.468 205.408 282.186 201.286 283.935C195.964 286.19 194.463 288.425 194.175 289.96C193.948 291.175 194.479 291.953 194.479 291.953Z" fill="#93C0D6"/>
<path d="M194.479 291.953L230.416 291.775C230.681 291.289 230.823 290.599 230.878 289.777L194.174 289.959C193.947 291.175 194.479 291.953 194.479 291.953Z" fill="#255973"/>
<path d="M226.749 291.793L227.817 291.788C226.746 290.575 225.74 288.714 225.857 286.043C226.013 282.491 228.131 280.087 229.605 278.833C229.545 278.476 229.494 278.143 229.455 277.841C227.865 279.068 225.189 281.751 225.001 286.004C224.889 288.555 225.735 290.453 226.749 291.793Z" fill="#353F18"/>
<path d="M213.711 280.003C213.976 280.001 214.218 279.82 214.283 279.55C214.36 279.232 214.165 278.912 213.847 278.835L211.599 278.289C211.282 278.21 210.961 278.407 210.884 278.725C210.807 279.042 211.002 279.363 211.32 279.44L213.568 279.986C213.615 279.998 213.663 280.003 213.711 280.003Z" fill="#353F18"/>
<path d="M216.183 278.053C216.448 278.051 216.69 277.87 216.755 277.6C216.832 277.282 216.637 276.963 216.319 276.885L214.071 276.339C213.754 276.26 213.433 276.457 213.356 276.775C213.279 277.093 213.474 277.413 213.792 277.49L216.04 278.036C216.088 278.047 216.136 278.054 216.183 278.053Z" fill="#353F18"/>
<path d="M211.472 281.319C211.737 281.318 211.979 281.137 212.044 280.866C212.122 280.549 211.926 280.229 211.608 280.151L209.361 279.605C209.043 279.527 208.722 279.723 208.646 280.041C208.568 280.359 208.763 280.679 209.081 280.756L211.329 281.302C211.377 281.313 211.425 281.319 211.472 281.319Z" fill="#353F18"/>
<path d="M209.234 282.584C209.499 282.583 209.741 282.401 209.806 282.132C209.884 281.814 209.688 281.493 209.37 281.417L207.123 280.87C206.805 280.792 206.484 280.988 206.408 281.306C206.33 281.624 206.525 281.944 206.843 282.021L209.091 282.568C209.139 282.579 209.186 282.584 209.234 282.584Z" fill="#353F18"/>
<path d="M206.792 283.757C207.057 283.755 207.298 283.573 207.364 283.304C207.441 282.986 207.246 282.666 206.928 282.589L204.681 282.042C204.363 281.965 204.042 282.16 203.965 282.478C203.888 282.795 204.083 283.117 204.401 283.193L206.649 283.74C206.697 283.752 206.744 283.757 206.792 283.757Z" fill="#353F18"/>
<path d="M204.142 284.759C204.408 284.757 204.649 284.576 204.714 284.306C204.792 283.989 204.597 283.668 204.279 283.591L202.031 283.045C201.713 282.967 201.393 283.162 201.316 283.48C201.238 283.798 201.434 284.119 201.752 284.195L203.999 284.742C204.047 284.754 204.095 284.759 204.142 284.759Z" fill="#353F18"/>
<path d="M217.377 185.157C217.216 186.438 217.073 187.603 216.969 188.621C216.944 188.882 216.918 189.151 216.888 189.443C215.813 202.202 216.774 246.237 217.105 260.002C217.121 260.462 217.126 260.888 217.137 261.274C217.186 263.11 216.989 265.871 216.989 265.871L230.134 266.992C230.134 266.992 230.565 264.268 230.915 262.502C231.006 262.075 231.096 261.608 231.199 261.103C232.664 253.771 235.802 238.04 238.475 224.25C242.108 205.525 241.332 194.392 241.332 194.392C241.332 194.392 240.591 189.929 243.394 179.078C245.715 170.083 255.67 142.48 258.469 132.984C259.035 131.068 257.116 128.978 257.116 128.978C257.116 128.978 238.849 116.386 232.697 122.003C232.219 122.441 230.588 126.621 230.29 127.24C229.54 128.798 228.644 131.336 227.686 134.521C223.691 147.743 219.061 172.349 217.377 185.157Z" fill="#342216"/>
<path d="M229.395 261.909C229.397 261.909 229.398 261.91 229.4 261.91C229.632 261.944 229.849 261.783 229.883 261.55C229.933 261.204 234.957 226.797 236.757 216.47C238.275 207.761 238.802 190.67 238.833 189.645C242.948 173.24 253.797 131.415 253.905 130.994C253.964 130.766 253.828 130.534 253.6 130.475C253.374 130.416 253.14 130.553 253.081 130.78C252.973 131.201 242.103 173.106 237.996 189.483C237.989 189.513 237.985 189.544 237.984 189.574C237.979 189.752 237.466 207.448 235.919 216.323C234.117 226.661 229.091 261.08 229.041 261.427C229.007 261.659 229.166 261.874 229.395 261.909Z" fill="#684D3C"/>
<path d="M271.071 265.08L271.553 276.346L283.014 276.562L282.189 265.973L271.071 265.08Z" fill="#0F5070"/>
<path d="M285.609 289.275C285.609 289.364 285.607 289.45 285.605 289.535C285.597 289.931 285.58 290.286 285.563 290.59C285.523 291.261 285.474 291.672 285.474 291.672H263.226C263.226 291.672 263.116 290.812 263.201 289.534C263.347 287.261 264.102 283.67 267.174 281.297C271.381 278.045 269.756 278.724 270.619 277.241C270.717 277.077 271.473 274.558 271.553 274.384C272.277 272.845 272.942 272.117 276.928 272.117C282.215 272.117 282.68 274.682 283.245 276.034C283.478 276.594 283.797 277.772 284.125 279.174C284.258 279.737 284.391 280.337 284.522 280.948C284.848 282.481 285.152 284.082 285.36 285.359C285.579 286.73 285.626 288.138 285.609 289.275Z" fill="#93C0D6"/>
<path d="M285.609 289.275C285.609 289.364 285.607 289.451 285.605 289.535C285.597 289.931 285.58 290.286 285.563 290.59C284.478 289.829 283.704 288.824 283.252 287.593C281.875 283.844 283.992 279.345 284.081 279.154L284.125 279.175C284.258 279.738 284.391 280.338 284.522 280.949C284.021 282.48 283.444 285.054 284.245 287.232C284.537 288.026 284.993 288.709 285.609 289.275Z" fill="#255973"/>
<path d="M285.605 289.535C285.575 290.801 285.474 291.673 285.474 291.673H263.226C263.226 291.673 263.116 290.813 263.201 289.535H285.605Z" fill="#255973"/>
<path d="M277.663 279.055C277.61 279.055 277.557 279.048 277.504 279.034C274.674 278.302 272.369 278.921 272.346 278.928C272.008 279.021 271.659 278.823 271.566 278.486C271.472 278.148 271.67 277.798 272.008 277.705C272.115 277.675 274.667 276.989 277.822 277.806C278.161 277.894 278.365 278.24 278.277 278.579C278.202 278.865 277.945 279.055 277.663 279.055Z" fill="#255973"/>
<path d="M278.028 276.492C277.975 276.492 277.922 276.485 277.869 276.471C275.039 275.739 272.733 276.358 272.711 276.365C272.373 276.458 272.023 276.26 271.93 275.923C271.837 275.585 272.035 275.235 272.373 275.142C272.479 275.113 275.032 274.426 278.187 275.243C278.526 275.331 278.73 275.677 278.642 276.016C278.568 276.302 278.31 276.492 278.028 276.492Z" fill="#255973"/>
<path d="M276.711 281.064C276.659 281.064 276.606 281.058 276.552 281.044C273.741 280.316 271.416 280.932 271.394 280.938C271.056 281.031 270.708 280.832 270.615 280.495C270.522 280.157 270.72 279.809 271.057 279.715C271.164 279.686 273.716 278.999 276.871 279.816C277.21 279.904 277.414 280.25 277.326 280.589C277.251 280.875 276.993 281.064 276.711 281.064Z" fill="#255973"/>
<path d="M275.593 283.35C275.54 283.35 275.487 283.343 275.434 283.33C272.623 282.602 270.298 283.217 270.275 283.224C269.937 283.317 269.588 283.117 269.495 282.78C269.403 282.443 269.6 282.094 269.938 282C270.045 281.97 272.597 281.284 275.752 282.101C276.091 282.189 276.295 282.535 276.207 282.874C276.133 283.16 275.875 283.35 275.593 283.35Z" fill="#255973"/>
<path d="M254.742 137.918C255.423 138.07 256.107 138.215 256.793 138.354C265.571 140.13 274.784 140.848 281.232 139.484C284.416 138.812 286.45 135.362 287.746 131.508C288.1 130.456 288.398 129.373 288.649 128.308C289.737 123.708 289.945 119.449 289.945 119.449L238.994 108.367C238.994 108.367 237.416 110.941 235.665 114.295C234.396 116.724 233.038 119.561 232.119 122.128C232.117 122.13 232.117 122.133 232.115 122.135C231.567 123.67 231.177 125.108 231.06 126.302C230.684 130.118 241.969 135.075 254.742 137.918Z" fill="#342216"/>
<path d="M258.267 189.976C258.306 191.267 258.346 192.44 258.402 193.462C258.418 193.723 258.433 193.993 258.449 194.286C259.368 207.057 267.156 250.409 269.62 263.956C269.707 264.408 269.778 264.828 269.85 265.208C270.182 267.014 270.373 268.036 270.373 268.036L283.532 267.101C283.532 267.101 283.579 266.079 283.65 264.28C283.674 263.845 283.69 263.369 283.713 262.854C284.022 255.383 284.68 239.356 285.179 225.318C285.86 206.257 283.365 195.379 283.365 195.379C283.365 195.379 281.939 191.085 283.024 179.931C283.919 170.685 287.097 141.269 288.388 131.453C288.649 129.473 288.799 128.308 288.799 128.308C288.799 128.308 268.153 122.5 262.949 129.005C262.544 129.512 262.228 130.099 262.029 130.756C261.53 132.412 261.039 135.057 260.587 138.353C258.695 152.035 257.942 177.062 258.267 189.976Z" fill="#342216"/>
<path d="M269.623 263.958C269.704 264.408 269.782 264.824 269.851 265.205L283.653 264.28C283.671 263.849 283.691 263.373 283.713 262.856L269.623 263.958Z" fill="#684D3C"/>
<path d="M283.83 146.657C284.019 146.657 284.19 146.527 284.235 146.335C284.286 146.111 284.147 145.887 283.923 145.835C283.885 145.826 281.517 145.252 279.1 143.265C275.857 140.6 274.063 136.789 273.764 131.937C273.749 131.707 273.552 131.531 273.322 131.547C273.093 131.561 272.918 131.758 272.933 131.988C273.324 138.352 276.233 141.997 278.603 143.935C281.177 146.038 283.633 146.623 283.736 146.647C283.767 146.653 283.799 146.657 283.83 146.657Z" fill="#342216"/>
<path d="M282.058 263.932C282.06 263.932 282.061 263.932 282.063 263.932C282.298 263.929 282.487 263.736 282.483 263.502C282.479 263.151 282.1 228.381 282.274 217.9C282.421 209.061 280.288 192.096 280.16 191.079C281.677 174.234 285.9 131.232 285.943 130.799C285.965 130.565 285.794 130.357 285.561 130.335C285.328 130.312 285.118 130.482 285.096 130.716C285.053 131.15 280.822 174.233 279.308 191.05C279.306 191.08 279.306 191.112 279.31 191.142C279.333 191.318 281.574 208.879 281.424 217.886C281.249 228.378 281.629 263.16 281.633 263.511C281.635 263.745 281.826 263.932 282.058 263.932Z" fill="#684D3C"/>
<path d="M217.107 260.004C217.117 260.461 217.129 260.885 217.138 261.272L230.916 262.5C231.001 262.078 231.095 261.611 231.196 261.103L217.107 260.004Z" fill="#684D3C"/>
<path d="M258.753 137.999C258.906 137.982 259.043 137.883 259.103 137.731C259.188 137.512 259.08 137.265 258.861 137.18C258.793 137.154 254.048 135.233 252.561 130.059C252.496 129.833 252.26 129.702 252.035 129.767C251.809 129.832 251.679 130.068 251.743 130.294C253.353 135.895 258.341 137.891 258.552 137.974C258.619 137.999 258.687 138.007 258.753 137.999Z" fill="#684D3C"/>
<path d="M290.393 119.76C290.208 125.746 230.656 128.862 229.472 118.841C227.378 101.118 226.053 99.1104 221.086 90.0326C220.541 89.0359 219.95 87.9553 219.313 86.7592C219.13 86.4186 218.945 86.0708 218.756 85.7125C218.296 84.8433 217.841 83.995 217.389 83.167C216.773 82.0403 216.163 80.954 215.565 79.8992C214.77 78.4941 213.992 77.1528 213.244 75.8679C212.586 74.7381 211.951 73.6534 211.342 72.6082C207.758 66.4512 205.153 61.7194 204.819 57.7793C204.382 52.6158 217.298 42.1862 217.298 42.1862L230.993 32.8073C230.993 32.8073 246.616 30.9688 253.387 33.2213C262.543 36.2696 270.327 62.7774 275.564 74.6735C280.799 86.5703 290.576 113.776 290.393 119.76Z" fill="#AFDBDA"/>
<path d="M259.286 60.3529C241.95 69.2499 220.363 74.34 213.243 75.8678C212.585 74.7379 211.95 73.6532 211.341 72.6081C216.706 71.5016 239.582 66.4373 257.65 57.1642C258.532 56.7122 259.611 57.0609 260.062 57.9406C260.514 58.8211 260.166 59.9017 259.286 60.3529Z" fill="#93C0D6"/>
<path d="M262.28 67.903C245.795 76.3618 225.468 81.3825 217.389 83.1677C216.773 82.0411 216.163 80.9547 215.565 79.8999C222.587 78.3915 243.724 73.4007 260.644 64.7167C261.523 64.2648 262.602 64.611 263.053 65.4907C263.505 66.3728 263.159 67.451 262.28 67.903Z" fill="#93C0D6"/>
<path d="M265.292 74.9214C249.255 83.1518 229.582 88.1249 221.086 90.0328C220.541 89.0361 219.95 87.9554 219.313 86.7594C226.984 85.0783 247.293 80.131 263.656 71.7335C264.536 71.2816 265.614 71.6302 266.066 72.5099C266.518 73.3896 266.172 74.4703 265.292 74.9214Z" fill="#93C0D6"/>
<path d="M217.601 83.954C217.468 83.954 217.337 83.887 217.262 83.7651C216.858 83.1106 207.367 67.6425 206.969 59.3766C206.958 59.1571 207.128 58.9707 207.347 58.9602C207.561 58.9497 207.753 59.1184 207.764 59.3387C208.152 67.3996 217.842 83.1889 217.94 83.3471C218.055 83.5343 217.997 83.7797 217.81 83.8951C217.744 83.9346 217.672 83.954 217.601 83.954Z" fill="#93C0D6"/>
<path d="M283.96 116.912C284.224 116.862 284.402 116.609 284.357 116.341C282.436 104.944 278.384 93.814 271.971 82.3134C264.714 69.3012 259.501 48.5202 259.449 48.312C259.383 48.0457 259.116 47.8818 258.846 47.9496C258.58 48.0158 258.418 48.2854 258.484 48.5525C258.536 48.7623 263.781 69.6692 271.101 82.7984C277.459 94.1981 281.474 105.224 283.376 116.507C283.422 116.778 283.679 116.96 283.949 116.914C283.953 116.914 283.956 116.913 283.96 116.912Z" fill="#93C0D6"/>
<path d="M260.485 100.478C255.484 101.429 249.629 101.077 243.165 99.4037C235.611 97.449 229.8 94.3499 229.742 94.3185C229.494 94.1845 229.4 93.8746 229.534 93.626C229.668 93.3766 229.978 93.2838 230.227 93.417C230.284 93.4476 236.004 96.4959 243.444 98.4183C250.259 100.179 259.959 101.33 267.463 96.8123C267.705 96.667 268.02 96.7445 268.165 96.9866C268.311 97.2287 268.233 97.5435 267.991 97.6887C265.781 99.0188 263.264 99.9493 260.485 100.478Z" fill="#93C0D6"/>
<path d="M261.107 109.251C255.779 110.264 251.056 109.66 247.804 108.874C243.52 107.837 240.861 106.309 240.75 106.244C240.506 106.102 240.424 105.789 240.565 105.545C240.707 105.301 241.019 105.218 241.265 105.36C241.369 105.42 251.858 111.369 264.311 107.384C264.578 107.299 264.868 107.446 264.954 107.715C265.04 107.984 264.892 108.272 264.622 108.359C263.429 108.74 262.254 109.033 261.107 109.251Z" fill="#93C0D6"/>
<path d="M227.771 46.8727C223.303 47.7226 219.172 45.5064 218.982 45.4031C218.735 45.2675 218.643 44.9568 218.778 44.709C218.914 44.4613 219.225 44.37 219.472 44.5056C219.539 44.5419 224.236 47.0438 228.722 45.5742C231.288 44.734 233.318 42.7559 234.758 39.6948C234.878 39.4389 235.183 39.3292 235.439 39.4494C235.695 39.5697 235.805 39.8747 235.685 40.1306C234.119 43.4605 231.881 45.6194 229.034 46.5499C228.612 46.6863 228.19 46.7937 227.771 46.8727Z" fill="#93C0D6"/>
<path d="M204.016 23.861C204.016 23.861 200.689 22.368 199.748 19.4319C198.806 16.4958 200.636 15.0931 200.636 15.0931C200.636 15.0931 193.118 14.3167 193.26 11.0296C193.402 7.74243 198.689 9.32588 198.689 9.32588C198.689 9.32588 193.46 5.52544 196.875 3.82174C200.291 2.11804 204.692 3.9662 204.692 3.9662C204.692 3.9662 205.786 0.774288 211.173 0.858222C216.56 0.942963 217.768 2.24717 217.768 2.24717C217.768 2.24717 221.237 -1.09728 223.588 0.373988C225.938 1.84526 222.145 4.29145 222.145 4.29145C222.145 4.29145 228.951 3.57317 228.227 5.82002C227.503 8.06687 224.311 8.00311 224.311 8.00311C224.311 8.00311 230.151 11.965 229.661 19.9516C229.171 27.9375 227.091 28.2853 227.091 28.2853C227.091 28.2853 213.498 17.3739 204.016 23.861Z" fill="#1F152E"/>
<path d="M208.999 24.0064C208.999 24.0064 206.153 20.8896 203.564 23.0977C200.976 25.3058 205.442 35.2496 210.957 32.3224L208.999 24.0064Z" fill="#D1703A"/>
<path d="M231.509 32.7064C231.509 32.7064 232.974 35.5577 228.39 39.8973C225.131 42.9835 222.947 42.789 220.705 42.672C219.794 42.6251 219.231 42.5186 219.231 42.5186C217.976 37.9676 215.882 35.6804 215.347 35.1526C215.265 35.0719 215.221 35.0331 215.221 35.0331L225.634 20.7175L231.509 32.7064Z" fill="#E49764"/>
<path d="M226.514 27.2725C226.514 27.2725 227.973 38.3195 220.705 42.672C219.793 42.6251 219.231 42.5186 219.231 42.5186C217.976 37.9676 215.882 35.6804 215.347 35.1526L226.514 27.2725Z" fill="#342216"/>
<path d="M223.588 34.9615C218.35 39.0517 212.444 38.9089 209.353 34.2069C208.606 33.0738 207.656 31.3669 206.712 29.5647C206.702 29.5462 206.693 29.5292 206.683 29.5098C206.483 29.1265 206.282 28.7383 206.082 28.3509C205.936 28.0701 205.793 27.7892 205.653 27.5091C204.011 24.2728 202.613 21.2948 202.613 21.2948C199.365 12.836 205.797 5.80007 213.719 5.61122C221.638 5.42479 224.159 16.4468 226.566 21.2318C228.975 26.0153 228.08 31.4549 223.588 34.9615Z" fill="#E49764"/>
<path d="M213.681 21.3582C213.783 21.2694 213.836 21.129 213.805 20.9862C213.803 20.9757 213.569 19.8095 214.222 19.3656C214.935 18.8797 215.782 19.1049 215.79 19.1073C215.995 19.1638 216.208 19.0444 216.265 18.8394C216.322 18.6352 216.205 18.4229 216 18.3648C215.952 18.3511 214.805 18.0347 213.787 18.728C212.706 19.464 213.035 21.0782 213.05 21.1468C213.094 21.355 213.299 21.4881 213.507 21.4438C213.574 21.43 213.633 21.3994 213.681 21.3582Z" fill="#342216"/>
<path d="M209.093 23.8271C209.097 23.823 209.102 23.8198 209.106 23.8158C209.26 23.6689 209.266 23.4252 209.119 23.2702C209.077 23.2258 208.079 22.1936 207.007 22.6108C206.007 22.9998 205.669 23.9804 205.655 24.0224C205.588 24.2242 205.697 24.4429 205.899 24.5107C206.1 24.5776 206.318 24.4703 206.387 24.2694C206.392 24.2548 206.634 23.5842 207.287 23.3307C207.872 23.1031 208.554 23.7956 208.56 23.8029C208.703 23.9522 208.938 23.9619 209.093 23.8271Z" fill="#342216"/>
<path d="M214.392 29.7727C214.688 29.5637 214.99 29.2917 215.286 28.9374C216.82 27.1038 216.768 24.501 216.765 24.3913C216.761 24.2234 216.621 24.091 216.453 24.0951C216.285 24.0991 216.153 24.2387 216.157 24.4066C216.158 24.4316 216.203 26.8923 214.819 28.5468C213.448 30.1851 211.98 29.7614 211.966 29.7574C211.804 29.7082 211.635 29.7994 211.586 29.96C211.537 30.1206 211.628 30.2909 211.788 30.3401C211.85 30.3578 213.063 30.7089 214.392 29.7727Z" fill="#342216"/>
<path d="M214.987 31.3035C214.813 31.3318 214.699 31.3374 214.681 31.3374C214.458 31.3455 214.272 31.1711 214.264 30.9492C214.256 30.7273 214.427 30.54 214.652 30.5328C214.717 30.5295 216.164 30.4504 216.786 29.1131C216.88 28.9114 217.12 28.8234 217.322 28.9178C217.523 29.0115 217.61 29.2512 217.517 29.4529C216.872 30.8386 215.58 31.2067 214.987 31.3035Z" fill="#D1703A"/>
<path d="M203.659 23.4823C203.659 23.4823 203.077 20.5535 201.965 17.5375C201.596 16.5384 202.558 15.2503 203.399 14.5966C203.74 14.3311 204.12 14.1221 204.506 14.0704C205.768 13.9025 206.592 15.0405 207.797 13.8041C209.002 12.5677 209.655 9.49518 212.436 9.21836C215.217 8.94154 215.211 10.7042 216.907 11.8203C218.602 12.9365 219.02 16.4601 221.208 17.9459C223.396 19.4317 222.977 12.1157 222.977 12.1157C222.977 12.1157 217.894 2.60774 210.629 4.2041C203.365 5.80046 197.804 14.1584 203.659 23.4823Z" fill="#1F152E"/>
<path d="M222.039 20.3044C222.299 20.9137 221.285 21.9322 219.773 22.5803C218.26 23.2283 216.823 23.2598 216.562 22.6505C216.301 22.0412 217.316 21.0227 218.828 20.3746C220.341 19.7265 221.778 19.695 222.039 20.3044Z" fill="#D1703A"/>
<path d="M207.41 29.3063C207.175 29.4071 206.939 29.4935 206.711 29.5637C206.701 29.5452 206.692 29.5282 206.682 29.5088C206.482 29.1255 206.281 28.7373 206.081 28.3499C205.936 28.069 205.793 27.7882 205.652 27.5081C205.902 27.3629 206.175 27.2232 206.467 27.099C207.979 26.4509 209.415 26.4194 209.676 27.0287C209.937 27.6381 208.922 28.6582 207.41 29.3063Z" fill="#D1703A"/>
<path d="M212.814 27.2709C212.768 27.2911 212.716 27.2991 212.663 27.2919C210.888 27.0732 210.391 26.7285 210.31 26.6624C210.234 26.6002 210.194 26.5034 210.204 26.4049L210.612 22.5722C210.613 22.5609 210.615 22.5496 210.617 22.5383C210.775 21.8499 210.335 20.8217 209.789 19.6474C209.721 19.5013 209.784 19.327 209.931 19.2592C210.081 19.193 210.252 19.2544 210.32 19.4012C210.909 20.6659 211.38 21.7845 211.192 22.6513L210.806 26.275C211.029 26.3751 211.583 26.5696 212.734 26.7116C212.895 26.731 213.009 26.877 212.988 27.0376C212.976 27.145 212.907 27.2313 212.814 27.2709Z" fill="#342216"/>
<path d="M222.061 15.2689C222.061 15.2689 222.355 11.7388 225.756 11.6468C229.157 11.5556 232.494 21.932 226.437 23.4485L222.061 15.2689Z" fill="#E49764"/>
<path d="M225.784 19.5037C225.765 19.5118 225.745 19.5183 225.724 19.5223C225.566 19.553 225.412 19.4489 225.382 19.2899C225.356 19.1543 224.775 15.9591 227.095 14.2627C227.225 14.1675 227.408 14.1957 227.503 14.3257C227.599 14.4564 227.57 14.6388 227.44 14.7348C225.417 16.2158 225.951 19.1511 225.956 19.1801C225.983 19.3173 225.908 19.4505 225.784 19.5037Z" fill="#342216"/>
<path d="M227.68 17.4421C227.612 17.4712 227.534 17.4744 227.461 17.4462C227.453 17.4429 226.679 17.1484 225.813 16.9022C225.657 16.8586 225.566 16.6964 225.611 16.5407C225.654 16.3849 225.817 16.2953 225.972 16.3389C226.866 16.5923 227.637 16.8869 227.67 16.8998C227.821 16.9579 227.896 17.1266 227.838 17.2775C227.808 17.355 227.75 17.4123 227.68 17.4421Z" fill="#342216"/>
<path d="M211.398 14.2604C211.398 14.2604 213.422 12.9771 215.053 13.8673C216.553 14.6865 215.391 15.7082 214.684 15.5291C213.774 15.2974 212.987 15.3572 211.942 15.7074C210.896 16.0569 210.609 14.7043 211.398 14.2604Z" fill="#BC6C25"/>
<path d="M205.807 17.0388C205.807 17.0388 203.581 17.929 203.349 19.7723C203.135 21.4679 204.644 21.1241 204.912 20.4454C205.258 19.5721 205.766 18.9684 206.662 18.326C207.559 17.6836 206.629 16.6595 205.807 17.0388Z" fill="#BC6C25"/>
<path d="M262.743 40.0914L263.022 40.6701L263.279 41.2181L263.779 42.3052C264.109 43.0283 264.419 43.7555 264.732 44.481C265.359 45.9321 265.952 47.3937 266.523 48.8682C267.663 51.8172 268.722 54.8081 269.668 57.875C270.15 59.4051 270.587 60.9603 271.011 62.5333C271.425 64.1111 271.811 65.7099 272.155 67.3514C272.49 68.993 272.793 70.6741 273.021 72.4278C273.236 74.1913 273.407 76.0104 273.396 78.0377C273.387 79.0522 273.337 80.1167 273.188 81.2861C273.113 81.8729 273.014 82.4814 272.869 83.1351C272.795 83.4636 272.72 83.7856 272.616 84.1415L272.463 84.6612L272.267 85.2197C271.726 86.7015 270.982 88.0121 270.174 89.1081C269.366 90.2114 268.497 91.1274 267.622 91.9111C265.87 93.4776 264.118 94.5679 262.405 95.4661C260.694 96.3684 259.006 97.0423 257.345 97.6331C254.017 98.7856 250.76 99.5216 247.517 100.045C245.896 100.306 244.278 100.5 242.66 100.644C241.849 100.71 241.039 100.765 240.225 100.811C239.818 100.835 239.408 100.844 238.997 100.857L238.374 100.873L237.705 100.881C234.922 100.915 232.639 98.6871 232.604 95.9044C232.578 93.8222 233.819 92.02 235.611 91.2299L236.324 90.9176L236.364 90.9006L236.42 90.8804L236.538 90.8393L236.784 90.7553L237.288 90.5883L238.309 90.2429C238.993 90.0161 239.676 89.7812 240.355 89.5375C241.716 89.0629 243.063 88.5674 244.387 88.0598C247.029 87.0396 249.593 85.9396 251.872 84.7218C253.011 84.1221 254.074 83.4765 254.987 82.8349C255.893 82.19 256.653 81.525 257.098 80.9819C257.318 80.7107 257.461 80.4807 257.524 80.3354C257.59 80.1861 257.556 80.1336 257.506 80.1756C257.459 80.224 257.503 79.9884 257.505 79.6494C257.513 79.3048 257.502 78.8456 257.464 78.3395C257.394 77.3227 257.228 76.1105 256.993 74.8652C256.758 73.611 256.473 72.3036 256.135 70.9776C255.475 68.3199 254.661 65.5912 253.795 62.8489C252.921 60.1073 251.989 57.3447 251.025 54.5822L249.567 50.4379L248.116 46.3711L248.064 46.2267C246.585 42.0832 248.746 37.525 252.889 36.0464C256.751 34.6704 260.989 36.4887 262.743 40.0914Z" fill="#E49764"/>
<path d="M220.385 87.9379H215.712C213.69 87.9379 212.044 86.2923 212.044 84.269V78.7504C212.044 76.7279 213.69 75.0823 215.712 75.0823H220.385C222.408 75.0823 224.053 76.7279 224.053 78.7504V84.269C224.053 86.2923 222.408 87.9379 220.385 87.9379ZM215.712 76.966C214.728 76.966 213.927 77.7666 213.927 78.7512V84.2698C213.927 85.2536 214.728 86.055 215.712 86.055H220.385C221.369 86.055 222.169 85.2544 222.169 84.2698V78.7512C222.169 77.7674 221.369 76.966 220.385 76.966H215.712Z" fill="#FEFAE0"/>
<path d="M219.836 91.0628C215.269 92.4356 210.702 92.4356 206.135 91.0628V72.3076C210.702 71.9896 215.269 71.9896 219.836 72.3076V91.0628Z" fill="#FEFAE0"/>
<path d="M226.578 92.8192H202.499C201.786 92.8192 201.208 92.2413 201.208 91.5279C201.208 90.8144 201.786 90.2366 202.499 90.2366H226.578C227.291 90.2366 227.869 90.8144 227.869 91.5279C227.869 92.2413 227.291 92.8192 226.578 92.8192Z" fill="#342216"/>
<path d="M219.406 97.4623C219.406 97.4623 214.197 97.2872 212.556 96.3841C210.915 95.481 207.098 94.1913 206.887 93.0985C206.676 92.0058 215.953 94.4705 215.953 94.4705L219.406 97.4623Z" fill="#D1703A"/>
<path d="M236.2 94.0233C236.2 94.0233 232.911 91.1276 229.819 90.2269C226.726 89.3263 222.191 87.5144 219.313 89.206C218.601 89.6241 218.344 90.2374 220.99 90.7814C222.421 91.0752 224.541 91.6667 224.052 92.2736C223.563 92.8805 220.977 93.3567 217.912 92.6885C214.848 92.0202 208.935 89.9905 207.216 90.5078C205.498 91.0251 208.493 92.7216 210.848 93.9152C213.042 95.0273 214.836 96.6221 218.82 98.5848C221.484 99.8971 237.483 100.897 237.483 100.897C237.483 100.897 237.146 99.4016 236.2 94.0233Z" fill="#E49764"/>
<path d="M251.508 34.9715C251.508 34.9715 244.611 38.4895 246.998 47.0661C249.386 55.6419 251.508 66.9141 251.508 66.9141C251.508 66.9141 267.295 66.4549 272.469 62.9055C272.469 62.9055 266.234 27.6999 251.508 34.9715Z" fill="#93C0D6"/>
<path d="M251.362 66.5502C251.181 66.5502 251.018 66.4268 250.975 66.2436C250.941 66.1007 247.581 51.8561 246.191 45.0534C246.146 44.8379 246.285 44.6281 246.501 44.5837C246.715 44.5393 246.926 44.6781 246.97 44.8936C248.359 51.6842 251.716 65.9175 251.75 66.0604C251.801 66.2742 251.667 66.4889 251.454 66.5389C251.423 66.5462 251.392 66.5502 251.362 66.5502Z" fill="#93C0D6"/>
<path d="M247.601 50.1412C247.518 50.1412 247.434 50.1154 247.363 50.0621L244.936 48.2519C244.76 48.1203 244.724 47.8709 244.854 47.695C244.985 47.5191 245.235 47.4819 245.411 47.6135L247.839 49.4237C248.015 49.5553 248.051 49.8046 247.92 49.9806C247.843 50.0863 247.723 50.1412 247.601 50.1412Z" fill="#93C0D6"/>
</svg>
