<svg width="152" height="111" viewBox="0 0 152 111" fill="none" xmlns="http://www.w3.org/2000/svg">
<path d="M2.78454 16.3144C5.38886 14.83 8.69239 15.7005 10.2334 18.2516L10.3055 18.3743L10.5131 18.7356C14.9357 26.3821 23.5933 37.8715 35.2164 47.4474C47.0363 57.1854 61.4262 64.5479 77.1962 64.5479C117.732 64.5479 132.183 29.3591 140.277 20.413L140.374 20.3089C142.429 18.1501 145.843 18.0125 148.065 20.0236C150.288 22.0349 150.492 25.4451 148.549 27.7052L148.455 27.8119C143.85 32.9014 124.215 75.5758 77.1962 75.5758C57.9444 75.5758 41.1442 66.6193 28.2043 55.9585C15.4546 45.4545 5.97032 32.9104 0.959947 24.2449L0.724651 23.8354L0.655792 23.7107C-0.754021 21.0848 0.180266 17.7988 2.78454 16.3144Z" fill="#543474"/>
<path d="M146.137 15.0986C126.384 13.9601 98.1284 16.8102 79.2979 30.2515C69.6599 37.1312 62.3875 46.8789 60.2752 60.1383C58.2218 73.0271 61.1554 88.5361 70.2718 107.066L70.7107 107.951C72.0726 110.674 75.3846 111.779 78.1083 110.417C80.8321 109.055 81.9361 105.743 80.5742 103.019L80.1643 102.192C71.6558 84.8965 69.5916 71.7536 71.1656 61.8731C72.7383 52.0018 78.0521 44.6896 85.705 39.227C101.456 27.9838 126.603 25.0189 145.503 26.1082C148.543 26.2834 151.149 23.9611 151.325 20.921C151.5 17.8808 149.177 15.2739 146.137 15.0986Z" fill="url(#paint0_linear_31_149)"/>
<path d="M5.36486 15.0986C25.1181 13.9601 53.3735 16.8102 72.204 30.2515C81.842 37.1312 89.1143 46.8789 91.2267 60.1383C93.28 73.0271 90.3465 88.5361 81.2301 107.066L80.7912 107.951C79.4293 110.674 76.1173 111.779 73.3936 110.417C70.6698 109.055 69.5658 105.743 70.9277 103.019L71.3376 102.192C79.8461 84.8965 81.9103 71.7536 80.3362 61.8731C78.7636 52.0018 73.4497 44.6896 65.7969 39.227C50.0456 27.9838 24.8992 25.0189 5.99927 26.1082C2.95914 26.2834 0.352577 23.9611 0.177267 20.921C0.00203793 17.8808 2.32464 15.2739 5.36486 15.0986Z" fill="url(#paint1_linear_31_149)"/>
<circle cx="75.6925" cy="11.0279" r="11.0279" fill="#7C4DAD"/>
<defs>
<linearGradient id="paint0_linear_31_149" x1="142.027" y1="15.0379" x2="70.8459" y2="99.752" gradientUnits="userSpaceOnUse">
<stop stop-color="#A27DCF"/>
<stop offset="1" stop-color="#774AA0"/>
</linearGradient>
<linearGradient id="paint1_linear_31_149" x1="0.16813" y1="20.719" x2="75.024" y2="118.466" gradientUnits="userSpaceOnUse">
<stop stop-color="#75479E"/>
<stop offset="1" stop-color="#A682D3"/>
</linearGradient>
</defs>
</svg>
