<svg width="16" height="17" viewBox="0 0 16 17" fill="none" xmlns="http://www.w3.org/2000/svg">
<path d="M7.99967 11.8333C8.18856 11.8333 8.3469 11.7694 8.47467 11.6417C8.60245 11.5139 8.66634 11.3555 8.66634 11.1667C8.66634 10.9778 8.60245 10.8194 8.47467 10.6917C8.3469 10.5639 8.18856 10.5 7.99967 10.5C7.81079 10.5 7.65245 10.5639 7.52467 10.6917C7.3969 10.8194 7.33301 10.9778 7.33301 11.1667C7.33301 11.3555 7.3969 11.5139 7.52467 11.6417C7.65245 11.7694 7.81079 11.8333 7.99967 11.8333ZM7.33301 9.16666H8.66634V5.16666H7.33301V9.16666ZM7.99967 15.1667C7.07745 15.1667 6.21079 14.9917 5.39967 14.6417C4.58856 14.2917 3.88301 13.8167 3.28301 13.2167C2.68301 12.6167 2.20801 11.9111 1.85801 11.1C1.50801 10.2889 1.33301 9.42222 1.33301 8.49999C1.33301 7.57777 1.50801 6.71111 1.85801 5.89999C2.20801 5.08888 2.68301 4.38333 3.28301 3.78333C3.88301 3.18333 4.58856 2.70833 5.39967 2.35833C6.21079 2.00833 7.07745 1.83333 7.99967 1.83333C8.9219 1.83333 9.78856 2.00833 10.5997 2.35833C11.4108 2.70833 12.1163 3.18333 12.7163 3.78333C13.3163 4.38333 13.7913 5.08888 14.1413 5.89999C14.4913 6.71111 14.6663 7.57777 14.6663 8.49999C14.6663 9.42222 14.4913 10.2889 14.1413 11.1C13.7913 11.9111 13.3163 12.6167 12.7163 13.2167C12.1163 13.8167 11.4108 14.2917 10.5997 14.6417C9.78856 14.9917 8.9219 15.1667 7.99967 15.1667Z" fill="#CB6701"/>
</svg>
