<svg width="25" height="24" viewBox="0 0 25 24" fill="none" xmlns="http://www.w3.org/2000/svg">
<path fill-rule="evenodd" clip-rule="evenodd" d="M12.0996 2.75C6.99098 2.75 2.84961 6.89137 2.84961 12C2.84961 13.4811 3.19713 14.8788 3.81441 16.1181C4.06215 16.6155 4.15755 17.2103 4.00124 17.7945L3.40563 20.0205C3.29624 20.4293 3.67027 20.8034 4.0791 20.694L6.30514 20.0984C6.88934 19.9421 7.48412 20.0375 7.98152 20.2852C9.22082 20.9025 10.6186 21.25 12.0996 21.25C17.2082 21.25 21.3496 17.1086 21.3496 12C21.3496 6.89137 17.2082 2.75 12.0996 2.75ZM1.34961 12C1.34961 6.06294 6.16255 1.25 12.0996 1.25C18.0367 1.25 22.8496 6.06294 22.8496 12C22.8496 17.9371 18.0367 22.75 12.0996 22.75C10.3813 22.75 8.75513 22.3463 7.31276 21.6279C7.09752 21.5207 6.87774 21.4979 6.69285 21.5474L4.46681 22.143C2.94298 22.5507 1.54888 21.1566 1.95661 19.6328L2.55221 17.4068C2.60169 17.2219 2.57894 17.0021 2.47174 16.7869C1.75332 15.3445 1.34961 13.7183 1.34961 12ZM7.34961 10.5C7.34961 10.0858 7.6854 9.75 8.09961 9.75H16.0996C16.5138 9.75 16.8496 10.0858 16.8496 10.5C16.8496 10.9142 16.5138 11.25 16.0996 11.25H8.09961C7.6854 11.25 7.34961 10.9142 7.34961 10.5ZM7.34961 14C7.34961 13.5858 7.6854 13.25 8.09961 13.25H13.5996C14.0138 13.25 14.3496 13.5858 14.3496 14C14.3496 14.4142 14.0138 14.75 13.5996 14.75H8.09961C7.6854 14.75 7.34961 14.4142 7.34961 14Z" fill="#4D4D4D"/>
</svg>
