<svg width="25" height="24" viewBox="0 0 25 24" fill="none" xmlns="http://www.w3.org/2000/svg">
<path fill-rule="evenodd" clip-rule="evenodd" d="M11.843 1.25H13.9558C15.7936 1.24998 17.2492 1.24997 18.3884 1.40314C19.5609 1.56076 20.5098 1.89288 21.2582 2.64124C22.0065 3.38961 22.3387 4.33856 22.4963 5.51098C22.6494 6.65019 22.6494 8.10583 22.6494 9.94359V14.0564C22.6494 15.8942 22.6494 17.3498 22.4963 18.489C22.3387 19.6614 22.0065 20.6104 21.2582 21.3588C20.5098 22.1071 19.5609 22.4392 18.3884 22.5969C17.2492 22.75 15.7936 22.75 13.9558 22.75H11.843C10.0052 22.75 8.54961 22.75 7.41039 22.5969C6.23797 22.4392 5.28902 22.1071 4.54066 21.3588C3.79229 20.6104 3.46018 19.6614 3.30255 18.489C3.14939 17.3498 3.1494 15.8942 3.14941 14.0564V9.94358C3.1494 8.10582 3.14939 6.65019 3.30255 5.51098C3.46018 4.33856 3.79229 3.38961 4.54066 2.64124C5.28902 1.89288 6.23797 1.56076 7.41039 1.40314C8.54961 1.24997 10.0052 1.24998 11.843 1.25ZM7.61026 2.88976C6.60417 3.02502 6.02453 3.27869 5.60132 3.7019C5.17811 4.12511 4.92444 4.70476 4.78917 5.71085C4.65101 6.73851 4.64941 8.09318 4.64941 10V14C4.64941 15.9068 4.65101 17.2615 4.78917 18.2892C4.92444 19.2952 5.17811 19.8749 5.60132 20.2981C6.02453 20.7213 6.60417 20.975 7.61026 21.1102C8.63793 21.2484 9.99259 21.25 11.8994 21.25H13.8994C15.8062 21.25 17.1609 21.2484 18.1886 21.1102C19.1947 20.975 19.7743 20.7213 20.1975 20.2981C20.6207 19.8749 20.8744 19.2952 21.0097 18.2892C21.1478 17.2615 21.1494 15.9068 21.1494 14V10C21.1494 8.09318 21.1478 6.73851 21.0097 5.71085C20.8744 4.70476 20.6207 4.12511 20.1975 3.7019C19.7743 3.27869 19.1947 3.02502 18.1886 2.88976C17.1609 2.75159 15.8062 2.75 13.8994 2.75H11.8994C9.99259 2.75 8.63793 2.75159 7.61026 2.88976ZM8.14941 10C8.14941 9.58579 8.4852 9.25 8.89941 9.25H16.8994C17.3136 9.25 17.6494 9.58579 17.6494 10C17.6494 10.4142 17.3136 10.75 16.8994 10.75H8.89941C8.4852 10.75 8.14941 10.4142 8.14941 10ZM8.14941 14C8.14941 13.5858 8.4852 13.25 8.89941 13.25H13.8994C14.3136 13.25 14.6494 13.5858 14.6494 14C14.6494 14.4142 14.3136 14.75 13.8994 14.75H8.89941C8.4852 14.75 8.14941 14.4142 8.14941 14Z" fill="#4D4D4D"/>
</svg>
