<svg width="25" height="24" viewBox="0 0 25 24" fill="none" xmlns="http://www.w3.org/2000/svg">
<path d="M16.7998 13.2871C14.3249 10.5713 11.2998 12.5746 11.2998 15.3995C11.2998 17.9583 13.1138 19.4344 14.6583 20.6912L14.7016 20.7265C14.8472 20.8449 14.9901 20.9615 15.1288 21.0769C15.6998 21.5523 16.2498 22 16.7998 22C17.3498 22 17.8998 21.5523 18.4709 21.0769C20.0891 19.7296 22.2998 18.2243 22.2998 15.3995C22.2998 14.4715 21.9733 13.6321 21.4472 13.0197C20.3716 11.7677 18.4617 11.4635 16.7998 13.2871Z" fill="#511D85"/>
<path d="M8.40608 18.2468C5.59799 16.0833 2.2998 13.5422 2.2998 9.1371C2.2998 4.27416 7.79997 0.825464 12.2998 5.50063C16.7996 0.825464 22.2998 4.27416 22.2998 9.1371C22.2998 9.97067 22.1817 10.7375 21.9712 11.4477C21.2522 10.8701 20.3508 10.5056 19.3518 10.5C18.4618 10.495 17.5934 10.7745 16.7986 11.3101C15.4097 10.3773 13.8427 10.2518 12.4696 10.9147C10.8343 11.7042 9.7998 13.4705 9.7998 15.3994C9.7998 17.7046 10.9483 19.3217 12.1413 20.4937C11.194 20.4184 10.2449 19.6861 9.26154 18.9109C8.98451 18.6925 8.69794 18.4717 8.40608 18.2468Z" fill="#511D85"/>
</svg>
