<svg width="16" height="12" viewBox="0 0 16 12" fill="none" xmlns="http://www.w3.org/2000/svg">
<path d="M13.9279 3.87437C13.9279 7.72838 9.57242 9.27985 7.19552 11.9261C4.81863 9.27985 0.463135 7.72838 0.463135 3.87437C0.463135 1.96102 1.94101 0.0742188 4.12369 0.0742188C5.55453 0.0742188 6.56735 0.943648 7.19552 2.09606C7.82369 0.943648 8.83575 0.0742188 10.2674 0.0742188C12.45 0.0742188 13.9279 1.96102 13.9279 3.87437Z" fill="#CE3030"/>
<path d="M13.9279 3.87437C13.9279 7.72838 9.57242 9.27985 7.19552 11.9261C4.81863 9.27985 0.463135 7.72838 0.463135 3.87437C0.463135 1.96102 1.94101 0.0742188 4.12369 0.0742188C5.55453 0.0742188 6.56735 0.943648 7.19552 2.09606C7.82369 0.943648 8.83575 0.0742188 10.2674 0.0742188C12.45 0.0742188 13.9279 1.96102 13.9279 3.87437Z" fill="url(#paint0_linear_233_5467)"/>
<path d="M15.0371 4.76911C15.0371 5.9755 13.6726 6.46114 12.928 7.28946C12.1834 6.46114 10.8189 5.9755 10.8189 4.76911C10.8189 4.1702 11.2819 3.57959 11.9657 3.57959C12.4139 3.57959 12.7312 3.85174 12.928 4.21247C13.1248 3.85174 13.4418 3.57959 13.8903 3.57959C14.5741 3.57959 15.0371 4.1702 15.0371 4.76911Z" fill="#FFCF64"/>
<path d="M11.642 8.51074C11.95 8.51074 12.1996 8.26109 12.1996 7.95313C12.1996 7.64516 11.95 7.39551 11.642 7.39551C11.3341 7.39551 11.0844 7.64516 11.0844 7.95313C11.0844 8.26109 11.3341 8.51074 11.642 8.51074Z" fill="#FFCF64"/>
<defs>
<linearGradient id="paint0_linear_233_5467" x1="7.19552" y1="0.0742187" x2="7.19552" y2="11.9261" gradientUnits="userSpaceOnUse">
<stop stop-color="#8B51C5"/>
<stop offset="1" stop-color="#43275F"/>
</linearGradient>
</defs>
</svg>
