<svg width="25" height="24" viewBox="0 0 25 24" fill="none" xmlns="http://www.w3.org/2000/svg">
<path fill-rule="evenodd" clip-rule="evenodd" d="M8.9502 9C8.9502 6.92893 10.6291 5.25 12.7002 5.25C14.7713 5.25 16.4502 6.92893 16.4502 9C16.4502 11.0711 14.7713 12.75 12.7002 12.75C10.6291 12.75 8.9502 11.0711 8.9502 9ZM12.7002 6.75C11.4576 6.75 10.4502 7.75736 10.4502 9C10.4502 10.2426 11.4576 11.25 12.7002 11.25C13.9428 11.25 14.9502 10.2426 14.9502 9C14.9502 7.75736 13.9428 6.75 12.7002 6.75Z" fill="#4D4D4D"/>
<path fill-rule="evenodd" clip-rule="evenodd" d="M1.9502 12C1.9502 6.06294 6.76313 1.25 12.7002 1.25C18.6373 1.25 23.4502 6.06294 23.4502 12C23.4502 17.9371 18.6373 22.75 12.7002 22.75C6.76313 22.75 1.9502 17.9371 1.9502 12ZM12.7002 2.75C7.59156 2.75 3.4502 6.89137 3.4502 12C3.4502 14.5456 4.47846 16.851 6.1423 18.5235C6.32269 17.5504 6.67714 16.6329 7.38856 15.8951C8.45272 14.7915 10.1544 14.25 12.7001 14.25C15.2459 14.25 16.9476 14.7915 18.0117 15.8951C18.7232 16.6329 19.0776 17.5505 19.258 18.5236C20.9219 16.8511 21.9502 14.5456 21.9502 12C21.9502 6.89137 17.8088 2.75 12.7002 2.75ZM17.8939 19.6554C17.792 18.4435 17.5288 17.5553 16.9319 16.9363C16.2825 16.2628 15.0791 15.75 12.7001 15.75C10.3212 15.75 9.11781 16.2628 8.46834 16.9363C7.87146 17.5553 7.60831 18.4434 7.50642 19.6553C8.98704 20.6618 10.7749 21.25 12.7002 21.25C14.6254 21.25 16.4133 20.6618 17.8939 19.6554Z" fill="#4D4D4D"/>
</svg>
