<svg width="16" height="12" viewBox="0 0 16 12" fill="none" xmlns="http://www.w3.org/2000/svg">
<path d="M13.9279 3.87425C13.9279 7.72826 9.57242 9.27973 7.19552 11.9259C4.81863 9.27973 0.463135 7.72826 0.463135 3.87425C0.463135 1.96089 1.94101 0.0740967 4.12369 0.0740967C5.55453 0.0740967 6.56735 0.943526 7.19552 2.09594C7.82369 0.943526 8.83575 0.0740967 10.2674 0.0740967C12.45 0.0740967 13.9279 1.96089 13.9279 3.87425Z" fill="#CE3030"/>
<path d="M13.9279 3.87425C13.9279 7.72826 9.57242 9.27973 7.19552 11.9259C4.81863 9.27973 0.463135 7.72826 0.463135 3.87425C0.463135 1.96089 1.94101 0.0740967 4.12369 0.0740967C5.55453 0.0740967 6.56735 0.943526 7.19552 2.09594C7.82369 0.943526 8.83575 0.0740967 10.2674 0.0740967C12.45 0.0740967 13.9279 1.96089 13.9279 3.87425Z" fill="url(#paint0_linear_169_4134)"/>
<path d="M15.037 4.76887C15.037 5.97525 13.6726 6.46089 12.9279 7.28921C12.1833 6.46089 10.8188 5.97525 10.8188 4.76887C10.8188 4.16995 11.2818 3.57935 11.9656 3.57935C12.4139 3.57935 12.7311 3.85149 12.9279 4.21222C13.1247 3.85149 13.4418 3.57935 13.8903 3.57935C14.574 3.57935 15.037 4.16995 15.037 4.76887Z" fill="#FFCF64"/>
<path d="M11.6421 8.51062C11.9501 8.51062 12.1997 8.26097 12.1997 7.953C12.1997 7.64504 11.9501 7.39539 11.6421 7.39539C11.3341 7.39539 11.0845 7.64504 11.0845 7.953C11.0845 8.26097 11.3341 8.51062 11.6421 8.51062Z" fill="#FFCF64"/>
<defs>
<linearGradient id="paint0_linear_169_4134" x1="7.19552" y1="0.0740967" x2="7.19552" y2="11.9259" gradientUnits="userSpaceOnUse">
<stop stop-color="#8B51C5"/>
<stop offset="1" stop-color="#43275F"/>
</linearGradient>
</defs>
</svg>
