<svg width="20" height="21" viewBox="0 0 20 21" fill="none" xmlns="http://www.w3.org/2000/svg">
<path fill-rule="evenodd" clip-rule="evenodd" d="M10 20.5C15.5228 20.5 20 16.0228 20 10.5C20 4.97715 15.5228 0.5 10 0.5C4.47715 0.5 0 4.97715 0 10.5C0 16.0228 4.47715 20.5 10 20.5ZM6.39747 14.0534C6.64413 13.7206 7.11385 13.6508 7.44661 13.8975C8.17495 14.4373 9.0541 14.75 10 14.75C10.9459 14.75 11.825 14.4373 12.5534 13.8975C12.8862 13.6508 13.3559 13.7206 13.6025 14.0534C13.8492 14.3862 13.7794 14.8559 13.4466 15.1025C12.4742 15.8233 11.285 16.25 10 16.25C8.71503 16.25 7.5258 15.8233 6.55339 15.1025C6.22062 14.8559 6.15082 14.3862 6.39747 14.0534ZM14 9C14 9.82843 13.5523 10.5 13 10.5C12.4477 10.5 12 9.82843 12 9C12 8.17157 12.4477 7.5 13 7.5C13.5523 7.5 14 8.17157 14 9ZM7 10.5C7.55228 10.5 8 9.82843 8 9C8 8.17157 7.55228 7.5 7 7.5C6.44772 7.5 6 8.17157 6 9C6 9.82843 6.44772 10.5 7 10.5Z" fill="#511D85"/>
</svg>
