<svg width="36" height="36" viewBox="0 0 36 36" fill="none" xmlns="http://www.w3.org/2000/svg">
<path d="M26.5549 36H9.44512C4.23402 36 0 31.7685 0 26.5606V9.43942C0 4.23146 4.23402 0 9.44512 0H26.5549C31.766 0 36 4.23146 36 9.43942V26.5389C36 31.7685 31.766 36 26.5549 36Z" fill="#F7F0FF"/>
<path d="M5.54367 14.3022C5.52197 14.2805 5.52197 14.2371 5.52197 14.2154C5.17478 12.2853 8.86374 11.7865 10.0572 12.1552C10.6648 12.3504 11.2724 12.6757 11.7715 13.0877C11.9668 13.2395 13.1603 14.7576 12.2923 14.7793C12.1621 14.7793 12.0536 14.7142 11.9451 14.6275C11.1422 14.0636 10.7299 13.2395 9.73174 13.001C8.62504 12.7407 7.43156 13.0877 6.67207 13.9335C6.41167 14.1938 5.80407 14.9311 5.54367 14.3022Z" fill="#511D85"/>
<path d="M29.9559 14.3022C29.9776 14.2805 29.9776 14.2371 29.9776 14.2154C30.3248 12.2853 26.6359 11.7865 25.4424 12.1552C24.8348 12.3504 24.2272 12.6757 23.7281 13.0877C23.5328 13.2395 22.3393 14.7576 23.2073 14.7793C23.3375 14.7793 23.446 14.7142 23.5545 14.6275C24.3574 14.0636 24.7697 13.2395 25.7679 13.001C26.8746 12.7407 28.068 13.0877 28.8275 13.9335C29.0662 14.1938 29.6955 14.9311 29.9559 14.3022Z" fill="#511D85"/>
<path d="M10.752 21.0468C15.2004 22.5866 20.365 22.4782 24.8135 20.9601C26.4192 20.3962 27.9599 19.6155 29.3053 18.5745C29.7176 18.2492 30.4988 17.577 30.9979 18.2059C31.28 18.5745 31.0413 19.1818 30.846 19.5288C30.3686 20.3745 29.544 20.9601 28.7845 21.5239C27.7863 22.2613 26.6796 22.8468 25.5295 23.3239C23.5766 24.1263 21.4717 24.5384 19.3668 24.6902C18.5639 24.7336 17.7827 24.7553 16.9798 24.7336C16.9581 24.7336 16.9364 24.7336 16.9147 24.7336C15.7863 24.6902 14.6579 24.5818 13.5512 24.3866C11.4247 24.0179 9.36318 23.2806 7.4753 22.2396C7.28 22.1312 7.063 22.001 6.8677 21.8926C6.19501 21.4806 5.54402 21.0685 5.15342 20.3529C5.02322 20.0926 4.93642 19.789 5.02322 19.5071C5.17512 19.03 5.67422 18.8565 6.12991 18.9432C6.84601 19.095 7.4319 19.5071 8.03949 19.8541C8.69049 20.2227 9.38488 20.548 10.0793 20.83C10.2963 20.895 10.535 20.9818 10.752 21.0468Z" fill="#511D85"/>
</svg>
