<svg width="36" height="36" viewBox="0 0 36 36" fill="none" xmlns="http://www.w3.org/2000/svg">
<path d="M26.4463 36H9.55368C4.27744 36 0 31.7226 0 26.4463V9.55368C0 4.27744 4.27744 0 9.55368 0H26.4463C31.7226 0 36 4.27744 36 9.55368V26.4463C36 31.7226 31.7226 36 26.4463 36Z" fill="#F7F0FF"/>
<path d="M14.0913 17.8262H5.42788C5.16733 17.8262 4.9502 17.6091 4.9502 17.3485C4.9502 17.088 5.16733 16.8708 5.42788 16.8708H14.0913C14.3519 16.8708 14.569 17.088 14.569 17.3485C14.569 17.6091 14.3519 17.8262 14.0913 17.8262Z" fill="#511D85"/>
<path d="M30.5718 17.8262H21.9083C21.6478 17.8262 21.4307 17.6091 21.4307 17.3485C21.4307 17.088 21.6478 16.8708 21.9083 16.8708H30.5718C30.8323 16.8708 31.0495 17.088 31.0495 17.3485C31.0495 17.6091 30.8323 17.8262 30.5718 17.8262Z" fill="#511D85"/>
<path d="M14.0913 19.8454H5.42788C5.16733 19.8454 4.9502 19.6283 4.9502 19.3678C4.9502 19.1072 5.16733 18.8901 5.42788 18.8901H14.0913C14.3519 18.8901 14.569 19.1072 14.569 19.3678C14.569 19.6283 14.3519 19.8454 14.0913 19.8454Z" fill="#511D85"/>
<path d="M30.5718 19.8454H21.9083C21.6478 19.8454 21.4307 19.6283 21.4307 19.3678C21.4307 19.1072 21.6478 18.8901 21.9083 18.8901H30.5718C30.8323 18.8901 31.0495 19.1072 31.0495 19.3678C31.0495 19.6283 30.8323 19.8454 30.5718 19.8454Z" fill="#511D85"/>
<path d="M34.2192 13.0928C34.2192 14.8299 33.5244 15.3293 32.569 15.3293C31.6136 15.3293 30.7451 14.8299 30.7451 13.0928C30.7451 11.3558 31.4616 7.75146 32.417 7.75146C33.3724 7.77318 34.2192 11.3558 34.2192 13.0928Z" fill="#511D85"/>
</svg>
