<svg width="36" height="36" viewBox="0 0 36 36" fill="none" xmlns="http://www.w3.org/2000/svg">
<path d="M26.5389 36H9.43942C4.23146 36 0 31.7685 0 26.5606V9.43942C0 4.23146 4.23146 0 9.43942 0H26.5389C31.7468 0 35.9783 4.23146 35.9783 9.43942V26.5389C35.9783 31.7685 31.7468 36 26.5389 36Z" fill="#F7F0FF"/>
<path d="M10.1776 20.7232C11.0405 20.7232 11.74 19.5476 11.74 18.0975C11.74 16.6474 11.0405 15.4718 10.1776 15.4718C9.31473 15.4718 8.61523 16.6474 8.61523 18.0975C8.61523 19.5476 9.31473 20.7232 10.1776 20.7232Z" fill="#511D85"/>
<path d="M25.8016 20.7232C26.6645 20.7232 27.364 19.5477 27.364 18.0975C27.364 16.6474 26.6645 15.4719 25.8016 15.4719C24.9388 15.4719 24.2393 16.6474 24.2393 18.0975C24.2393 19.5477 24.9388 20.7232 25.8016 20.7232Z" fill="#511D85"/>
</svg>
