<svg width="36" height="36" viewBox="0 0 36 36" fill="none" xmlns="http://www.w3.org/2000/svg">
<path d="M26.5606 36H9.43942C4.23146 36 0 31.7685 0 26.5606V9.43942C0 4.23146 4.23146 0 9.43942 0H26.5389C31.7468 0 35.9783 4.23146 35.9783 9.43942V26.5389C36 31.7685 31.7685 36 26.5606 36Z" fill="#511D85"/>
<path d="M8.64049 16.6588C9.67595 16.6588 10.5154 15.2481 10.5154 13.508C10.5154 11.7678 9.67595 10.3572 8.64049 10.3572C7.60503 10.3572 6.76562 11.7678 6.76562 13.508C6.76562 15.2481 7.60503 16.6588 8.64049 16.6588Z" fill="white"/>
<path d="M27.3631 16.6589C28.3986 16.6589 29.238 15.2483 29.238 13.5081C29.238 11.768 28.3986 10.3573 27.3631 10.3573C26.3277 10.3573 25.4883 11.768 25.4883 13.5081C25.4883 15.2483 26.3277 16.6589 27.3631 16.6589Z" fill="white"/>
<path d="M24.4212 20.6691C26.1138 20.6691 27.2075 22.4659 26.4523 23.9762C25.0201 26.8406 21.8173 28.8456 18.0675 28.8456C14.3178 28.8456 11.1149 26.8406 9.68272 23.9762C8.92756 22.4659 10.0212 20.6691 11.7138 20.6691H24.4212Z" fill="white"/>
</svg>
