<svg width="36" height="36" viewBox="0 0 36 36" fill="none" xmlns="http://www.w3.org/2000/svg">
<path d="M26.5606 35.9783H9.43942C4.23146 35.9783 0 31.7468 0 26.5389V9.43942C0 4.23146 4.23146 0 9.43942 0H26.5606C31.7685 0 36 4.23146 36 9.43942V26.5389C36 31.7468 31.7685 35.9783 26.5606 35.9783Z" fill="#F7F0FF"/>
<path d="M12.8309 16.4987C13.0872 15.4133 12.4151 14.3257 11.3298 14.0694C10.2444 13.8131 9.15684 14.4852 8.90056 15.5706C8.64428 16.6559 9.31637 17.7435 10.4017 17.9998C11.4871 18.2561 12.5746 17.584 12.8309 16.4987Z" fill="#511D85"/>
<path d="M25.7999 17.8802C26.8302 17.4534 27.3195 16.2721 26.8927 15.2418C26.4659 14.2114 25.2847 13.7221 24.2543 14.1489C23.224 14.5757 22.7347 15.757 23.1615 16.7873C23.5883 17.8177 24.7695 18.307 25.7999 17.8802Z" fill="#511D85"/>
<path d="M11.2359 23.6561C15.6871 22.1145 20.8547 22.223 25.3059 23.7429C26.9126 24.3075 28.4543 25.0891 29.8005 26.1313C30.213 26.457 30.9947 27.1301 31.494 26.5005C31.7763 26.1313 31.5375 25.5234 31.3421 25.176C30.8644 24.3292 30.0393 23.7429 29.2793 23.1784C28.2806 22.4402 27.1732 21.8539 26.0224 21.3762C24.0682 20.5728 21.9621 20.1603 19.8559 20.0083C19.0526 19.9649 18.2709 19.9432 17.4675 19.9649C17.4458 19.9649 17.4241 19.9649 17.4024 19.9649C16.2733 20.0083 15.1442 20.1169 14.0369 20.3123C11.909 20.6814 9.84629 21.4196 7.95727 22.4619C7.76185 22.5704 7.54472 22.7007 7.34931 22.8093C6.67621 23.2218 6.02482 23.6344 5.63398 24.3509C5.50371 24.6114 5.41686 24.9154 5.50371 25.1977C5.6557 25.6754 6.15509 25.8491 6.61106 25.7622C7.32759 25.6102 7.91384 25.1977 8.5218 24.8503C9.17318 24.4812 9.868 24.1555 10.5628 23.8732C10.7799 23.8298 10.9971 23.7429 11.2359 23.6561Z" fill="#511D85"/>
<path d="M14.4926 13.0168C14.6446 12.9734 14.7532 12.8214 14.7098 12.6694C14.6446 12.2351 14.4709 11.8226 14.2321 11.4535C13.9715 11.0626 8.73872 13.4728 8.1959 13.7333C6.91483 14.3413 5.52521 15.0144 4.26586 15.8395C3.94017 16.0566 4.22243 16.556 4.56984 16.404C5.89432 15.8829 7.21882 15.2532 8.54331 14.7973C10.4975 14.1242 12.4733 13.5379 14.4926 13.0168Z" fill="#511D85"/>
<path d="M21.7232 12.7779C21.5712 12.7345 21.4844 12.5608 21.5278 12.4088C21.6363 11.9746 21.81 11.5837 22.0706 11.2146C22.3529 10.8455 27.4337 13.603 27.9331 13.8853C29.1707 14.5801 30.5169 15.3401 31.7111 16.2303C32.0151 16.4474 31.7111 16.9468 31.3637 16.7731C30.0827 16.1651 28.8016 15.4486 27.4988 14.9058C25.6315 14.1458 23.6991 13.4293 21.7232 12.7779Z" fill="#511D85"/>
</svg>
