<svg width="36" height="36" viewBox="0 0 36 36" fill="none" xmlns="http://www.w3.org/2000/svg">
<path d="M26.4463 36H9.55368C4.27744 36 0 31.7226 0 26.4463V9.55368C0 4.27744 4.27744 0 9.55368 0H26.4463C31.7226 0 36 4.27744 36 9.55368V26.4463C36 31.7226 31.7226 36 26.4463 36Z" fill="#F7F0FF"/>
<path d="M10.5524 19.3459C11.3559 19.3459 12.0072 18.3446 12.0072 17.1095C12.0072 15.8743 11.3559 14.873 10.5524 14.873C9.74898 14.873 9.09766 15.8743 9.09766 17.1095C9.09766 18.3446 9.74898 19.3459 10.5524 19.3459Z" fill="#511D85"/>
<path d="M25.1647 19.3459C25.9682 19.3459 26.6195 18.3446 26.6195 17.1095C26.6195 15.8743 25.9682 14.873 25.1647 14.873C24.3613 14.873 23.71 15.8743 23.71 17.1095C23.71 18.3446 24.3613 19.3459 25.1647 19.3459Z" fill="#511D85"/>
<path d="M23.0588 26.7718C24.3181 26.7718 25.1649 25.5776 24.6438 24.5571C23.5799 22.4509 21.0178 20.9744 18.0431 20.9744C15.0684 20.9744 12.5063 22.4509 11.4424 24.5571C10.9213 25.5993 11.7681 26.7718 13.0274 26.7718H23.0588Z" fill="#511D85"/>
<path d="M3.86469 13.679C3.95154 13.831 4.16867 13.983 4.47265 14.0481C7.05648 14.6561 12.159 13.8744 12.5716 10.8997C12.6367 10.4221 12.3544 9.22786 11.5945 9.79239C10.7911 10.3786 10.2266 11.2037 9.40148 11.79C8.57639 12.3545 7.62102 12.6802 6.5788 12.6368C5.9057 12.6151 5.16746 12.4848 4.51608 12.6585C3.90811 12.8539 3.64756 13.3316 3.86469 13.679Z" fill="#511D85"/>
<path d="M32.1339 13.6789C32.047 13.8309 31.8299 13.9829 31.5259 14.048C28.9421 14.656 23.8396 13.8743 23.427 10.8996C23.3619 10.4219 23.6442 9.22774 24.4041 9.79227C25.2075 10.3785 25.772 11.2036 26.5971 11.7898C27.4222 12.3544 28.3776 12.6801 29.4198 12.6367C30.0929 12.6149 30.8311 12.4847 31.4825 12.6584C32.0905 12.8538 32.351 13.3315 32.1339 13.6789Z" fill="#511D85"/>
</svg>
