<svg width="36" height="36" viewBox="0 0 36 36" fill="none" xmlns="http://www.w3.org/2000/svg">
<path d="M26.5549 36H9.44511C4.23402 36 0 31.766 0 26.5549V9.44511C0 4.23402 4.23402 0 9.44511 0H26.5549C31.766 0 36 4.23402 36 9.44511V26.5549C36 31.766 31.7877 36 26.5549 36Z" fill="#F7F0FF"/>
<path d="M24.6445 27.3367C25.4696 27.3367 26.0993 26.5551 25.8822 25.7517C25.0788 22.7553 22.0607 20.5406 18.4564 20.5406C14.852 20.5406 11.8339 22.777 11.0305 25.7517C10.8134 26.5551 11.4431 27.3367 12.2682 27.3367L16.9799 26.7071C17.9135 26.5768 18.8689 26.5768 19.8243 26.7071L24.6445 27.3367Z" fill="#511D85"/>
<path d="M12.138 13.5923C12.8979 13.0712 13.4842 12.3547 14.1356 11.6816C14.2224 11.573 14.331 11.4862 14.483 11.4645C14.6784 11.4427 14.8521 11.573 14.9172 11.7684C14.9824 11.9421 14.9607 12.1376 14.9389 12.333C14.6567 13.9614 13.4407 15.3294 12.0294 16.1979C11.2695 16.6538 10.4227 17.0012 9.55414 17.0664C8.72905 17.1315 7.8171 16.9361 7.16572 16.415C6.60118 15.959 6.31891 15.1774 7.10058 14.8517C7.75197 14.5911 8.77247 14.7431 9.489 14.6128C10.4009 14.4391 11.3346 14.1351 12.138 13.5923Z" fill="#511D85"/>
<path d="M23.8627 13.5924C23.1028 13.0713 22.5165 12.3547 21.8651 11.6816C21.7783 11.5731 21.6697 11.4862 21.5177 11.4645C21.3223 11.4428 21.1486 11.5731 21.0835 11.7685C21.0183 11.9639 21.04 12.1376 21.0618 12.333C21.344 13.9615 22.5599 15.3294 23.9713 16.1979C24.7312 16.6539 25.578 17.0013 26.4466 17.0664C27.2716 17.1316 28.1836 16.9362 28.835 16.4151C29.3995 15.9591 29.6818 15.1774 28.9001 14.8517C28.2487 14.5912 27.2282 14.7432 26.5117 14.6129C25.5997 14.4392 24.6661 14.1352 23.8627 13.5924Z" fill="#511D85"/>
</svg>
