<svg width="36" height="36" viewBox="0 0 36 36" fill="none" xmlns="http://www.w3.org/2000/svg">
<path d="M26.5549 36H9.44511C4.23402 36 0 31.766 0 26.5549V9.44511C0 4.23402 4.23402 0 9.44511 0H26.5549C31.766 0 36 4.23402 36 9.44511V26.5549C36.0217 31.766 31.7877 36 26.5549 36Z" fill="#F7F0FF"/>
<path d="M23.3187 25.8598C23.6226 25.9683 23.9049 25.7295 23.8615 25.4038C23.4924 22.82 21.0171 20.8224 18.0207 20.8224C15.0243 20.8224 12.5491 22.82 12.1799 25.4038C12.1365 25.7078 12.4405 25.9683 12.7228 25.8598L15.5454 24.8176C17.1305 24.2313 18.8458 24.2313 20.4309 24.8176L23.3187 25.8598Z" fill="#511D85"/>
<path d="M12.0284 17.9996C12.7 17.9996 13.2443 17.0858 13.2443 15.9586C13.2443 14.8314 12.7 13.9176 12.0284 13.9176C11.3569 13.9176 10.8125 14.8314 10.8125 15.9586C10.8125 17.0858 11.3569 17.9996 12.0284 17.9996Z" fill="#511D85"/>
<path d="M24.0782 17.9996C24.7498 17.9996 25.2941 17.0858 25.2941 15.9586C25.2941 14.8314 24.7498 13.9176 24.0782 13.9176C23.4067 13.9176 22.8623 14.8314 22.8623 15.9586C22.8623 17.0858 23.4067 17.9996 24.0782 17.9996Z" fill="#511D85"/>
<path d="M13.3967 14.4823C12.6802 13.9395 10.9649 12.919 8.16392 12.8973C8.01193 12.8973 7.88164 12.8321 7.8165 12.7236C7.66451 12.5064 7.53423 12.1373 8.03363 11.855C8.03363 11.855 9.40155 11.0517 11.0083 11.6596C11.0083 11.6596 12.7888 12.5498 13.5053 13.7006C13.527 13.7441 13.5487 13.8092 13.5704 13.8743L13.679 14.3086C13.7007 14.4823 13.527 14.5909 13.3967 14.4823Z" fill="#511D85"/>
<path d="M22.6244 14.4822C23.3409 13.9394 25.0562 12.9189 27.8572 12.8972C28.0092 12.8972 28.1395 12.8321 28.2046 12.7235C28.3566 12.5064 28.4869 12.1372 27.9875 11.855C27.9875 11.855 26.6196 11.0516 25.0128 11.6596C25.0128 11.6596 23.2323 12.5498 22.5158 13.7006C22.4941 13.744 22.4724 13.8091 22.4507 13.8743L22.3421 14.3085C22.2987 14.4822 22.4941 14.5908 22.6244 14.4822Z" fill="#511D85"/>
</svg>
