<svg width="36" height="36" viewBox="0 0 36 36" fill="none" xmlns="http://www.w3.org/2000/svg">
<path d="M26.4463 36H9.55368C4.27744 36 0 31.7226 0 26.4463V9.55368C0 4.27744 4.27744 0 9.55368 0H26.4463C31.7225 0 36 4.27744 36 9.55368V26.4463C36 31.7226 31.7225 36 26.4463 36Z" fill="#F7F0FF"/>
<path d="M24.3182 19.65C25.0782 19.65 25.6427 20.3665 25.469 21.1265C24.7091 24.188 21.6693 26.4679 17.9998 26.4679C14.3303 26.4679 11.2905 24.188 10.5305 21.1265C10.3568 20.3883 10.8997 19.65 11.6813 19.65H24.3182Z" fill="#511D85"/>
<path d="M12.2237 13.0493C12.6146 13.7224 12.81 14.6778 12.2237 15.1772C11.746 15.5897 11.0295 15.4595 10.3998 15.3943C8.8148 15.2206 7.16462 15.5463 5.75328 16.328C5.66643 16.3714 5.57957 16.4365 5.47101 16.4582C5.25388 16.5017 5.03675 16.3714 4.9499 16.1977C4.75449 15.8503 4.92819 15.416 5.23217 15.1772C5.53615 14.9384 5.92698 14.8515 6.31781 14.7863C7.92457 14.4824 9.59646 14.1567 11.1815 14.5692C11.2684 14.5909 11.3335 14.6127 11.4203 14.5909C11.6809 14.5258 11.6158 14.135 11.4638 13.9178C10.9427 13.1579 10.0741 12.7019 9.20563 12.4197C8.4891 12.1808 6.4698 12.1374 6.01383 11.5077C5.42758 10.6826 7.1429 10.2266 7.72915 10.2484C9.37933 10.2918 11.3986 11.638 12.2237 13.0493Z" fill="#511D85"/>
<path d="M23.7762 13.0493C23.3854 13.7224 23.19 14.6778 23.7762 15.1772C24.2539 15.5897 24.9705 15.4595 25.6001 15.3943C27.1852 15.2206 28.8354 15.5463 30.2467 16.328C30.3335 16.3714 30.4204 16.4365 30.529 16.4582C30.7461 16.5017 30.9632 16.3714 31.0501 16.1977C31.2455 15.8503 31.0718 15.416 30.7678 15.1772C30.4638 14.9384 30.073 14.8515 29.6822 14.7863C28.0754 14.4824 26.4035 14.1567 24.8185 14.5692C24.7316 14.5909 24.6665 14.6127 24.5796 14.5909C24.3191 14.5258 24.3842 14.135 24.5362 13.9178C25.0573 13.1579 25.9258 12.7019 26.7943 12.4197C27.5109 12.1808 29.5302 12.1374 29.9861 11.5077C30.5724 10.6826 28.8571 10.2266 28.2708 10.2484C26.6424 10.2918 24.6013 11.638 23.7762 13.0493Z" fill="#511D85"/>
</svg>
